<?xml version="1.0" standalone="no"?>
<!DOCTYPE svg PUBLIC "-//W3C//DTD SVG 1.1//EN" "http://www.w3.org/Graphics/SVG/1.1/DTD/svg11.dtd" >
<svg xmlns="http://www.w3.org/2000/svg" xmlns:xlink="http://www.w3.org/1999/xlink" version="1.1">
<metadata>
Created by FontForge 20170731 at Thu Aug 26 13:44:00 2021
 By Aleksey,,,
Copyright (c) 2016 by Chris Simpson.
</metadata>
<defs>
<font id="Metropolis-RegularItalic" horiz-adv-x="1212" >
  <font-face 
    font-family="Metropolis"
    font-weight="400"
    font-style="italic"
    font-stretch="normal"
    units-per-em="2048"
    panose-1="0 0 5 0 0 0 0 0 0 0"
    ascent="1628"
    descent="-420"
    x-height="1059"
    cap-height="1407"
    bbox="-575 -567 2320 1976"
    underline-thickness="40"
    underline-position="-312"
    slope="-11.75"
    unicode-range="U+0020-2212"
  />
<missing-glyph horiz-adv-x="1024" 
d="M840 1628v-2048h-650v2048h650zM682 1491h-338v-68h133v-75h-135v-68h340v68h-135v75h135v68zM547 1227h-205v-213h340v69h-135v144zM477 1157v-74h-67v74h67zM682 958h-340v-67h135v-76h-135v-67h205v143h135v67zM682 836h-68v-136h-272v-69h340v205zM682 586h-205v-115
h70v47h67v-96h-204v164h-68v-232h340v232zM682 231h-340v-231h340v231zM614 164v-96h-204v96h204zM682 -47h-340v-68h143l-143 -96v-68h340v68h-209l143 96h66v68z" />
    <glyph glyph-name=".notdef" horiz-adv-x="1024" 
d="M840 1628v-2048h-650v2048h650zM682 1491h-338v-68h133v-75h-135v-68h340v68h-135v75h135v68zM547 1227h-205v-213h340v69h-135v144zM477 1157v-74h-67v74h67zM682 958h-340v-67h135v-76h-135v-67h205v143h135v67zM682 836h-68v-136h-272v-69h340v205zM682 586h-205v-115
h70v47h67v-96h-204v164h-68v-232h340v232zM682 231h-340v-231h340v231zM614 164v-96h-204v96h204zM682 -47h-340v-68h143l-143 -96v-68h340v68h-209l143 96h66v68z" />
    <glyph glyph-name=".null" horiz-adv-x="0" 
 />
    <glyph glyph-name="nonmarkingreturn" horiz-adv-x="682" 
 />
    <glyph glyph-name="space" unicode=" " horiz-adv-x="593" 
 />
    <glyph glyph-name="exclam" unicode="!" horiz-adv-x="557" 
d="M195 395l170 1012h188l-250 -1012h-108zM176 -25q-43 0 -70.5 28.5t-27.5 70.5q0 53 37.5 88t85.5 35q42 0 69 -28t27 -69q0 -49 -37 -87t-84 -38z" />
    <glyph glyph-name="quotedbl" unicode="&#x22;" horiz-adv-x="847" 
d="M268 879q11 175 15 235q2 37 4 59.5t6 54.5t9.5 51t15.5 41t23.5 34t33 20t43.5 8q34 0 55 -21t21 -54q0 -17 -50 -171.5t-86 -256.5h-90zM639 879q0 4 5 95t9 140q2 37 4 59.5t6 54.5t9.5 51t15.5 41t23.5 34t33 20t43.5 8q34 0 55 -21t21 -54q0 -17 -50.5 -173.5
t-84.5 -254.5h-90z" />
    <glyph glyph-name="numbersign" unicode="#" horiz-adv-x="1382" 
d="M1350 913h-242l-195 -421h242l-57 -125h-242l-168 -367h-137l168 367h-305l-168 -367h-137l167 367h-231l57 125h232l194 421h-233l55 125h236l170 369h137l-170 -369h305l170 369h137l-170 -369h242zM776 492l195 421h-305l-195 -421h305z" />
    <glyph glyph-name="dollar" unicode="$" horiz-adv-x="1257" 
d="M1133 1112q-49 60 -123.5 104.5t-153.5 61.5l-102 -496q196 -51 281 -127.5t85 -199.5q0 -199 -149 -332.5t-385 -145.5l-27 -129h-160l29 140q-119 22 -227.5 80t-173.5 137l118 117q53 -68 137.5 -118t176.5 -71l108 522q-174 49 -250.5 119.5t-76.5 181.5
q0 195 135 326t352 150l27 122h159l-26 -129q104 -21 200.5 -72.5t161.5 -123.5zM403 995q0 -54 47.5 -94.5t151.5 -75.5l94 457q-132 -19 -212.5 -96.5t-80.5 -190.5zM954 424q0 62 -55 107t-180 83l-103 -489q151 15 244.5 97t93.5 202z" />
    <glyph glyph-name="percent" unicode="%" horiz-adv-x="1628" 
d="M471 715q-126 0 -198 77t-72 199q0 110 53 209t144.5 159t197.5 60q126 0 198 -77.5t72 -200.5q0 -170 -117 -298t-278 -128zM154 0l1255 1407h139l-1253 -1407h-141zM473 825q71 0 133 46.5t97.5 118.5t35.5 149q0 76 -39 123t-106 47q-109 0 -188.5 -100.5
t-79.5 -213.5q0 -76 40 -123t107 -47zM1100 -20q-124 0 -198.5 77t-74.5 201q0 108 53 206t146 159t199 61q126 0 198 -78t72 -200q0 -109 -53 -207.5t-144.5 -158.5t-197.5 -60zM1102 90q74 0 137.5 49.5t97 122t33.5 146.5t-40 119.5t-107 45.5q-108 0 -187.5 -97.5
t-79.5 -217.5q0 -76 39 -122t107 -46z" />
    <glyph glyph-name="ampersand" unicode="&#x26;" horiz-adv-x="1370" 
d="M1274 641q-137 -211 -270 -356l180 -236l-152 -59q-24 32 -71 93.5t-68 90.5q-228 -199 -471 -199q-168 0 -272.5 86.5t-104.5 233.5q0 330 420 500q-66 120 -66 225q0 116 58.5 209t155 143.5t208.5 50.5q124 0 201.5 -77.5t77.5 -194.5q0 -66 -23 -122t-59.5 -97
t-95.5 -79t-115 -63.5t-135 -56.5q123 -176 250 -340q118 132 227 320zM815 1286q-110 0 -187 -73t-77 -179q0 -98 51 -192q64 22 111.5 42.5t94 48.5t75.5 58t47 70.5t18 87.5q0 61 -35.5 99t-97.5 38zM434 113q182 0 377 170q-149 204 -276 399q-158 -64 -248 -158.5
t-90 -212.5q0 -93 66.5 -145.5t170.5 -52.5z" />
    <glyph glyph-name="quotesingle" unicode="'" horiz-adv-x="477" 
d="M268 879q11 175 15 235q2 37 4 59.5t6 54.5t9.5 51t15.5 41t23.5 34t33 20t43.5 8q34 0 55 -21t21 -54q0 -17 -50 -171.5t-86 -256.5h-90z" />
    <glyph glyph-name="parenleft" unicode="(" horiz-adv-x="737" 
d="M381 -344q-272 272 -272 661q0 322 170 617.5t460 503.5l74 -95q-545 -459 -545 -1046q0 -299 205 -561z" />
    <glyph glyph-name="parenright" unicode=")" horiz-adv-x="735" 
d="M2 -352l-72 96q543 456 543 1044q0 158 -50.5 294.5t-152.5 269.5l92 78q271 -274 271 -660q0 -322 -170 -617.5t-461 -504.5z" />
    <glyph glyph-name="asterisk" unicode="*" horiz-adv-x="837" 
d="M469 770q-22 0 -34 13t-9 32q10 50 44 141t42 115q-18 -11 -103.5 -71t-134.5 -85q-17 -9 -35 -2.5t-24 25.5q-7 18 1 37.5t26 28.5q49 25 145 58.5t115 41.5q-12 6 -96 40.5t-121 59.5q-14 9 -14.5 28t12.5 38q15 18 36.5 24.5t34.5 -2.5q37 -25 96.5 -83t75.5 -72
q1 16 5.5 110.5t15.5 145.5q3 19 20 32t39 13t34 -13t9 -32q-8 -38 -22 -80.5t-34 -95t-30 -80.5q15 10 102 70t136 85q17 9 35 2.5t24 -24.5q7 -18 -0.5 -37.5t-25.5 -28.5q-49 -25 -142 -57.5t-117 -42.5q17 -8 98 -41.5t118 -58.5q14 -9 14.5 -28t-12.5 -38
q-15 -19 -37 -25.5t-35 2.5q-36 25 -95.5 83t-76.5 73q-2 -25 -4 -80t-5.5 -96t-11.5 -80q-3 -19 -20 -32t-39 -13z" />
    <glyph glyph-name="plus" unicode="+" horiz-adv-x="1216" 
d="M1126 760l-32 -152h-394l-82 -393h-153l82 393h-393l32 152h394l82 395h153l-82 -395h393z" />
    <glyph glyph-name="comma" unicode="," horiz-adv-x="561" 
d="M80 -276l-72 65q94 84 154 193q-39 0 -64.5 25.5t-25.5 66.5q0 55 37.5 89t85.5 34q51 0 78.5 -34t27.5 -91q0 -44 -15.5 -86.5t-51 -89.5t-66.5 -81t-88 -91z" />
    <glyph glyph-name="hyphen" unicode="-" horiz-adv-x="761" 
d="M104 481l33 150h531l-33 -150h-531z" />
    <glyph glyph-name="period" unicode="." horiz-adv-x="516" 
d="M156 -25q-44 0 -71.5 28.5t-27.5 70.5q0 53 37.5 88t85.5 35q42 0 69 -28t27 -69q0 -49 -36.5 -87t-83.5 -38z" />
    <glyph glyph-name="slash" unicode="/" horiz-adv-x="854" 
d="M-174 -152l1067 1674h178l-1067 -1674h-178z" />
    <glyph glyph-name="zero" unicode="0" horiz-adv-x="1413" 
d="M602 -25q-215 0 -340 145t-125 388q0 135 35.5 269.5t103 251.5t157.5 208t207 143t243 52q215 0 340 -145t125 -386q0 -170 -56.5 -336.5t-153 -297t-237.5 -211.5t-299 -81zM610 123q123 0 233 71t184 183t117.5 249.5t43.5 270.5q0 177 -84 282t-230 105
q-122 0 -232 -71t-184 -183t-117.5 -248t-43.5 -268q0 -179 83.5 -285t229.5 -106z" />
    <glyph glyph-name="one" unicode="1" horiz-adv-x="720" 
d="M256 0l254 1212l-277 -159l-47 118l394 236h129l-293 -1407h-160z" />
    <glyph glyph-name="two" unicode="2" horiz-adv-x="1208" 
d="M-6 0l24 133l605 442q385 281 385 508q0 95 -67.5 150t-166.5 55q-224 0 -430 -223l-100 102q243 265 542 265q167 0 275 -91.5t108 -244.5q0 -92 -34 -178.5t-100 -165.5t-139.5 -144.5t-174.5 -140.5l-438 -315h712l-32 -152h-969z" />
    <glyph glyph-name="three" unicode="3" horiz-adv-x="1200" 
d="M487 -25q-168 0 -288 68.5t-181 177.5l125 96q53 -92 142.5 -144t210.5 -52q165 0 284 96t119 234q0 94 -81.5 141t-231.5 47h-156l31 147l145 -2q160 -2 277.5 85t117.5 221q0 88 -69.5 142t-183.5 54q-210 0 -416 -203l-92 105q234 244 522 244q182 0 292.5 -87.5
t110.5 -230.5q0 -146 -96 -250t-252 -147q100 -23 170 -93t70 -182q0 -100 -47 -188t-125.5 -148.5t-182.5 -95.5t-215 -35z" />
    <glyph glyph-name="four" unicode="4" horiz-adv-x="1275" 
d="M694 0l72 342h-700l4 133l891 932h186l-191 -920h211l-30 -145h-211l-72 -342h-160zM258 487h539l153 727z" />
    <glyph glyph-name="five" unicode="5" horiz-adv-x="1226" 
d="M504 -25q-300 0 -457 228l121 108q136 -192 350 -192q168 0 293 116.5t125 270.5q0 105 -73 167t-197 62q-171 0 -344 -112l-109 61l170 723h831l-30 -152h-676l-117 -469q153 91 314 91q174 0 284.5 -93t110.5 -254q0 -114 -47.5 -217.5t-128 -177t-190.5 -117
t-230 -43.5z" />
    <glyph glyph-name="six" unicode="6" horiz-adv-x="1275" 
d="M743 879q176 0 288 -93.5t112 -255.5q0 -151 -81.5 -279.5t-217 -202t-291.5 -73.5q-110 0 -192.5 34t-132.5 97t-74.5 147t-24.5 189q0 140 36 283.5t104 269t157.5 224t204.5 156t237 57.5q229 0 373 -172l-104 -117q-59 71 -123.5 107t-155.5 36q-94 0 -183.5 -52
t-159 -138.5t-121.5 -195.5t-79 -226q84 98 196.5 151.5t231.5 53.5zM557 113q110 0 209 57t158 149.5t59 192.5q0 107 -75 168t-199 61q-138 0 -254 -78t-166 -202v-2q0 -160 66 -253t202 -93z" />
    <glyph glyph-name="seven" unicode="7" horiz-adv-x="1230" 
d="M172 0l860 1255h-760l31 152h952l-22 -121l-875 -1286h-186z" />
    <glyph glyph-name="eight" unicode="8" horiz-adv-x="1243" 
d="M516 -25q-200 0 -324 90t-124 240q0 151 110 262t283 164q-97 40 -154 109.5t-57 163.5q0 95 48.5 177.5t127 136t175.5 84t196 30.5q179 0 299.5 -87t120.5 -231q0 -138 -96.5 -237t-254.5 -154q107 -39 173.5 -117t66.5 -184q0 -130 -85.5 -234t-219.5 -158.5
t-285 -54.5zM664 791q90 5 178.5 43.5t149.5 108t61 151.5q0 86 -73 139t-189 53q-97 0 -185.5 -39t-144 -108t-55.5 -150q0 -61 41.5 -106t98 -66.5t118.5 -25.5zM524 121q106 0 203 39.5t159 112t62 159.5q0 65 -46.5 116t-111.5 76t-133 27q-94 -2 -191.5 -44
t-166 -118.5t-68.5 -162.5q0 -93 82 -149t211 -56z" />
    <glyph glyph-name="nine" unicode="9" horiz-adv-x="1275" 
d="M797 1432q110 0 192.5 -34t132.5 -97t74.5 -147t24.5 -189q0 -140 -36.5 -283.5t-104.5 -269t-157.5 -224t-204.5 -156t-237 -57.5q-228 0 -372 172l104 117q59 -71 123.5 -107t155.5 -36q124 0 238 89.5t191 227t113 295.5q-84 -98 -196.5 -151.5t-231.5 -53.5
q-176 0 -287.5 93.5t-111.5 255.5q0 151 81.5 279.5t217 202t291.5 73.5zM641 666q138 0 254 78t166 202v2q0 160 -66 253t-202 93q-110 0 -209 -57t-158 -149.5t-59 -192.5q0 -107 75 -168t199 -61z" />
    <glyph glyph-name="colon" unicode=":" horiz-adv-x="516" 
d="M334 825q-45 0 -73 28.5t-28 70.5q0 53 37.5 88t85.5 35q42 0 69.5 -28.5t27.5 -68.5q0 -49 -36.5 -87t-82.5 -38zM156 -25q-44 0 -71.5 28.5t-27.5 70.5q0 53 37.5 88t85.5 35q42 0 69 -28t27 -69q0 -49 -36.5 -87t-83.5 -38z" />
    <glyph glyph-name="semicolon" unicode=";" horiz-adv-x="565" 
d="M344 825q-43 0 -70.5 28.5t-27.5 70.5q0 53 37.5 88t85.5 35q42 0 69 -28t27 -69q0 -49 -37 -87t-84 -38zM84 -276l-72 65q94 84 154 193q-39 0 -64.5 25.5t-25.5 66.5q0 55 37.5 89t85.5 34q51 0 78.5 -34t27.5 -91q0 -44 -15.5 -86.5t-51 -89.5t-66.5 -81t-88 -91z" />
    <glyph glyph-name="less" unicode="&#x3c;" horiz-adv-x="1202" 
d="M973 180l-836 463l25 121l1028 463l-29 -144l-860 -378l700 -379z" />
    <glyph glyph-name="equal" unicode="=" horiz-adv-x="1216" 
d="M201 834l32 151h941l-33 -151h-940zM106 383l33 152h940l-32 -152h-941z" />
    <glyph glyph-name="greater" unicode="&#x3e;" horiz-adv-x="1200" 
d="M84 180l29 146l860 379l-701 378l29 144l836 -463l-25 -121z" />
    <glyph glyph-name="question" unicode="?" horiz-adv-x="1042" 
d="M348 395l78 383q87 7 171 32.5t153 65.5t111 98t42 124q0 80 -58.5 134t-162.5 54q-111 0 -207 -52.5t-190 -146.5l-90 113q232 232 501 232q171 0 271 -87.5t100 -224.5q0 -87 -42 -166t-112.5 -137.5t-157.5 -100.5t-182 -61l-53 -260h-172zM369 -25q-44 0 -71.5 28.5
t-27.5 70.5q0 53 37.5 88t85.5 35q42 0 69 -28t27 -69q0 -49 -36.5 -87t-83.5 -38z" />
    <glyph glyph-name="at" unicode="@" horiz-adv-x="1806" 
d="M713 -238q-137 0 -256.5 48t-202.5 131t-130.5 197.5t-47.5 244.5q0 125 42 251t114.5 235t173.5 204.5t216 163t245 106.5t257 39q136 0 254 -46t200.5 -125.5t129.5 -189t47 -233.5q0 -152 -63 -296t-176.5 -238t-245.5 -94q-95 0 -147 47t-52 129q-77 -79 -173 -127.5
t-196 -48.5q-126 0 -201 71.5t-75 194.5q0 141 88 281.5t227 229.5t279 89q102 0 163 -46.5t83 -119.5l55 135l135 -10q-25 -63 -70 -171.5t-68 -165t-49.5 -126t-38 -109t-11.5 -59.5q0 -47 28.5 -72.5t81.5 -25.5q98 0 181 84t126 202t43 232q0 149 -73 271.5t-205 193
t-297 70.5q-116 0 -234.5 -36t-222.5 -98.5t-195 -150.5t-156 -188t-102.5 -214.5t-37.5 -226.5q0 -156 73 -284t205.5 -202.5t298.5 -74.5q126 0 233.5 29t233.5 96l27 -55q-136 -75 -255.5 -108.5t-258.5 -33.5zM764 281q83 0 163 42.5t137.5 109.5t92.5 151t35 164
q0 75 -45.5 116t-134.5 41q-78 0 -157.5 -40t-139.5 -102.5t-97.5 -144t-37.5 -161.5q0 -82 48.5 -129t135.5 -47z" />
    <glyph glyph-name="A" unicode="A" horiz-adv-x="1546" 
d="M1200 0l-76 319h-784l-207 -319h-178l913 1407h176l-2 -2l328 -1405h-170zM438 471h652l-172 739z" />
    <glyph glyph-name="B" unicode="B" horiz-adv-x="1396" 
d="M82 0l293 1407h641q143 0 234 -80.5t91 -206.5q0 -113 -71.5 -213t-200.5 -166q82 -46 134 -127t52 -163q0 -120 -67.5 -224t-182 -165.5t-247.5 -61.5h-676zM412 811h438q132 0 229 83.5t97 197.5q0 75 -62.5 122.5t-159.5 47.5h-448zM272 145h463q149 0 258 96t109 228
q0 86 -69.5 141.5t-176.5 55.5h-475z" />
    <glyph glyph-name="C" unicode="C" horiz-adv-x="1398" 
d="M721 -25q-157 0 -292.5 81t-215.5 219t-80 298q0 171 72 330t192 274.5t284.5 185t342.5 69.5q123 0 249.5 -61.5t203.5 -158.5l-125 -102q-57 77 -157.5 125.5t-201.5 48.5q-140 0 -269.5 -57.5t-223.5 -153.5t-150.5 -227t-56.5 -273q0 -120 62 -224t167.5 -165
t227.5 -61q96 0 215.5 51t210.5 131l92 -119q-113 -92 -266.5 -151.5t-280.5 -59.5z" />
    <glyph glyph-name="D" unicode="D" horiz-adv-x="1562" 
d="M82 0l293 1407h471q280 0 457.5 -156.5t177.5 -402.5q0 -170 -74 -326.5t-197.5 -271t-293.5 -182.5t-353 -68h-481zM272 145h310q147 0 283 56t235.5 149.5t159 221.5t59.5 266q0 186 -138.5 305t-355.5 119h-319z" />
    <glyph glyph-name="E" unicode="E" horiz-adv-x="1284" 
d="M1323 1255h-850l-92 -462h762l-31 -152h-766l-98 -489h846l-33 -152h-1010l293 1407h1010z" />
    <glyph glyph-name="F" unicode="F" horiz-adv-x="1247" 
d="M1323 1255h-850l-92 -462h762l-31 -152h-766l-133 -641h-162l293 1407h1010z" />
    <glyph glyph-name="G" unicode="G" horiz-adv-x="1511" 
d="M807 586l33 151h563l-115 -551q-113 -92 -272 -151.5t-295 -59.5q-157 0 -292.5 81t-215.5 219t-80 298q0 171 72 330t192 274.5t284.5 185t342.5 69.5q132 0 264 -61.5t209 -158.5l-125 -102q-57 77 -163 125.5t-216 48.5q-140 0 -269.5 -57.5t-223.5 -153.5
t-150.5 -227t-56.5 -273q0 -120 62 -224t167.5 -165t227.5 -61q91 0 198 38.5t197 102.5l65 322h-403z" />
    <glyph glyph-name="H" unicode="H" horiz-adv-x="1472" 
d="M1333 1407h160l-293 -1407h-160l131 641h-829l-131 -641h-160l293 1407h160l-125 -614h829z" />
    <glyph glyph-name="I" unicode="I" horiz-adv-x="483" 
d="M51 0l293 1407h160l-293 -1407h-160z" />
    <glyph glyph-name="J" unicode="J" horiz-adv-x="1103" 
d="M369 -25q-122 0 -228.5 67t-152.5 173l135 102q23 -86 99.5 -141t174.5 -55q126 0 227 96.5t132 247.5l194 942h160l-199 -954q-44 -210 -195.5 -344t-346.5 -134z" />
    <glyph glyph-name="K" unicode="K" horiz-adv-x="1349" 
d="M78 0l293 1407h159l-163 -778l874 778h215l-727 -643l469 -764h-201l-397 655l-272 -233l-90 -422h-160z" />
    <glyph glyph-name="L" unicode="L" horiz-adv-x="1136" 
d="M223 152h766l-33 -152h-927l293 1407h159z" />
    <glyph glyph-name="M" unicode="M" horiz-adv-x="1748" 
d="M82 0l293 1407h157l318 -981l727 981h162l-293 -1407h-160l223 1063l-723 -981l-321 981l-223 -1063h-160z" />
    <glyph glyph-name="N" unicode="N" horiz-adv-x="1576" 
d="M82 0l293 1407h157l635 -1145l240 1145h160l-293 -1407h-156l-635 1145l-241 -1145h-160z" />
    <glyph glyph-name="O" unicode="O" horiz-adv-x="1654" 
d="M715 -25q-156 0 -290.5 80t-214 217t-79.5 295q0 173 71 332.5t190.5 276.5t283 186.5t340.5 69.5q125 0 233.5 -46t184.5 -124.5t119.5 -188t43.5 -233.5q0 -172 -71.5 -331.5t-190 -276.5t-282 -187t-338.5 -70zM745 123q139 0 268.5 60t221.5 157.5t147.5 227.5
t55.5 266q0 126 -56.5 228.5t-160.5 162t-234 59.5q-139 0 -267 -56.5t-221.5 -151.5t-149.5 -225t-56 -271q0 -186 134 -321.5t318 -135.5z" />
    <glyph glyph-name="P" unicode="P" horiz-adv-x="1318" 
d="M51 0l293 1407h563q192 0 315.5 -107.5t123.5 -275.5q0 -138 -85 -257.5t-230 -190t-312 -70.5h-402l-106 -506h-160zM348 657h404q178 0 307 108t129 257q0 103 -88 168t-226 65h-401z" />
    <glyph glyph-name="Q" unicode="Q" horiz-adv-x="1660" 
d="M1597 840q0 -172 -70 -330t-194 -279l121 -127l-111 -104l-126 133q-231 -158 -502 -158q-156 0 -290.5 80t-214 217t-79.5 295q0 173 71 332.5t190.5 276.5t283 186.5t340.5 69.5q125 0 233.5 -46t184.5 -124.5t119.5 -188t43.5 -233.5zM745 123q201 0 369 117l-201 211
l111 104l207 -217q97 100 152 230t55 266q0 126 -56.5 228.5t-160.5 162t-234 59.5q-139 0 -267 -56.5t-221.5 -151.5t-149.5 -225t-56 -271q0 -186 134 -321.5t318 -135.5z" />
    <glyph glyph-name="R" unicode="R" horiz-adv-x="1331" 
d="M1346 1024q0 -180 -139.5 -322t-348.5 -182l316 -520h-177l-309 506h-371l-106 -506h-160l293 1407h563q192 0 315.5 -107.5t123.5 -275.5zM752 657q178 0 307 108t129 257q0 103 -88 168t-226 65h-401l-125 -598h404z" />
    <glyph glyph-name="S" unicode="S" horiz-adv-x="1257" 
d="M545 -23q-146 0 -290 64t-228 164l118 117q69 -88 184 -143.5t228 -55.5q175 0 286 84.5t111 216.5q0 71 -73.5 120.5t-243.5 92.5q-214 51 -305.5 124.5t-91.5 194.5q0 210 154 344t397 134q121 0 248.5 -57t209.5 -148l-116 -117q-63 77 -164 126.5t-195 49.5
q-163 0 -267 -82t-104 -211q0 -67 74.5 -115t247.5 -92q212 -51 303.5 -128t91.5 -205q0 -210 -161 -344t-414 -134z" />
    <glyph glyph-name="T" unicode="T" horiz-adv-x="1290" 
d="M455 0l262 1255h-473l30 152h1106l-30 -152h-473l-263 -1255h-159z" />
    <glyph glyph-name="U" unicode="U" horiz-adv-x="1527" 
d="M651 -25q-128 0 -228.5 45.5t-160.5 127t-81.5 194.5t7.5 248l170 817h160l-172 -829q-41 -201 52.5 -329t281.5 -128q189 0 336 131.5t188 337.5l170 817h160l-172 -829q-56 -265 -255 -434t-456 -169z" />
    <glyph glyph-name="V" unicode="V" horiz-adv-x="1546" 
d="M1485 1407h178l-913 -1407h-177l2 2l-327 1405h170l282 -1210z" />
    <glyph glyph-name="W" unicode="W" horiz-adv-x="2213" 
d="M446 0l-188 1407h178l150 -1139l612 1139h178l133 -1139l629 1139h182l-774 -1407h-157l-140 1198l-645 -1198h-158z" />
    <glyph glyph-name="X" unicode="X" horiz-adv-x="1433" 
d="M1538 1407l-688 -707l389 -700h-190l-320 575l-561 -575h-201l688 707l-389 700h191l319 -576l561 576h201z" />
    <glyph glyph-name="Y" unicode="Y" horiz-adv-x="1374" 
d="M492 0l122 573l-395 834h162l330 -696l612 696h197l-738 -834l-123 -573h-167z" />
    <glyph glyph-name="Z" unicode="Z" horiz-adv-x="1310" 
d="M12 0l23 127l1083 1128h-831l30 152h1053l-24 -127l-1084 -1128h856l-33 -152h-1073z" />
    <glyph glyph-name="bracketleft" unicode="[" horiz-adv-x="751" 
d="M8 -236l361 1739h483l-25 -117h-348l-313 -1505h348l-22 -117h-484z" />
    <glyph glyph-name="backslash" unicode="\" horiz-adv-x="845" 
d="M567 -152l-370 1674h170l370 -1674h-170z" />
    <glyph glyph-name="bracketright" unicode="]" horiz-adv-x="751" 
d="M-57 -236l22 117h348l314 1505h-348l24 117h483l-360 -1739h-483z" />
    <glyph glyph-name="asciicircum" unicode="^" horiz-adv-x="1003" 
d="M176 846l449 561h120l213 -561h-129l-161 448l-357 -448h-135z" />
    <glyph glyph-name="underscore" unicode="_" 
d="M-174 -291l29 137h1220l-28 -137h-1221z" />
    <glyph glyph-name="grave" unicode="`" horiz-adv-x="663" 
d="M555 1180l-238 258l166 37l187 -295h-115z" />
    <glyph glyph-name="a" unicode="a" horiz-adv-x="1310" 
d="M1098 1059h153l-221 -1059h-153l41 199q-81 -105 -191 -164.5t-231 -59.5q-161 0 -279.5 125t-118.5 297q0 137 50.5 264t135 219.5t200.5 147.5t241 55q106 0 195 -69.5t131 -179.5zM524 113q127 0 236.5 73t174 197t64.5 268q0 120 -90 207.5t-213 87.5
q-117 0 -218 -73t-160.5 -197t-59.5 -268q0 -120 78.5 -207.5t187.5 -87.5z" />
    <glyph glyph-name="b" unicode="b" horiz-adv-x="1312" 
d="M817 1083q161 0 279 -124.5t118 -294.5q0 -137 -50.5 -264.5t-134.5 -220.5t-200 -148.5t-241 -55.5q-106 0 -195 70t-131 180l-47 -225h-154l297 1432h154l-119 -572q81 105 191.5 164t232.5 59zM614 113q118 0 220 73t161.5 197t59.5 268q0 120 -79 207.5t-188 87.5
q-127 0 -236.5 -73t-174 -197t-64.5 -268q0 -120 89 -207.5t212 -87.5z" />
    <glyph glyph-name="c" unicode="c" horiz-adv-x="1114" 
d="M530 -25q-118 0 -219.5 61.5t-161 165.5t-59.5 224q0 131 54 252.5t144 210t214 141.5t258 53q92 0 188 -44.5t156 -114.5l-121 -97q-37 52 -107.5 85.5t-144.5 33.5q-129 0 -240 -69.5t-176 -187t-65 -253.5q0 -132 91 -227.5t216 -95.5q161 0 303 133l92 -113
q-189 -158 -422 -158z" />
    <glyph glyph-name="d" unicode="d" horiz-adv-x="1312" 
d="M1174 1432h153l-297 -1432h-153l41 197q-81 -103 -191 -162.5t-231 -59.5q-161 0 -279.5 125t-118.5 297q0 137 50.5 264t135 219.5t200.5 147.5t241 55q106 0 195 -69t131 -178zM524 113q161 0 289 113.5t170 285.5l8 39q8 44 8 100q0 120 -90 207.5t-213 87.5
q-117 0 -218 -73t-160.5 -197t-59.5 -268q0 -120 78.5 -207.5t187.5 -87.5z" />
    <glyph glyph-name="e" unicode="e" horiz-adv-x="1163" 
d="M614 471h-372q-2 -14 -2 -41q0 -145 81.5 -231t221.5 -86q96 0 197 38t161 93l82 -109q-81 -72 -217 -116t-250 -44q-188 0 -308 123t-120 320q0 129 55 252t144 213t208 145t242 55q101 0 186.5 -34.5t139 -102t53.5 -155.5q0 -142 -135 -231t-367 -89zM725 946
q-156 0 -277.5 -96.5t-175.5 -241.5h371q154 0 238 45.5t84 128.5q0 75 -67.5 119.5t-172.5 44.5z" />
    <glyph glyph-name="f" unicode="f" horiz-adv-x="716" 
d="M686 1475q109 0 191 -72l-93 -105q-12 18 -37.5 28.5t-52.5 10.5q-55 0 -101 -40t-58 -99l-29 -139h260l-29 -137h-260l-192 -922h-154l193 922h-166l28 137h166l31 151q25 118 109 191.5t194 73.5z" />
    <glyph glyph-name="g" unicode="g" horiz-adv-x="1269" 
d="M1057 1059h153l-198 -953q-44 -209 -213 -333.5t-393 -124.5q-127 0 -234 40.5t-170 104.5l84 113q102 -121 315 -121q179 0 304 89.5t157 244.5l33 155q-171 -196 -420 -196q-183 0 -292 108.5t-109 292.5q0 116 46.5 226t124.5 193.5t188 134t231 50.5
q133 0 222.5 -58.5t131.5 -158.5zM514 215q155 0 277.5 101t162.5 247l11 49q4 40 4 60q0 127 -75 200.5t-204 73.5q-121 0 -226.5 -63.5t-166.5 -168.5t-61 -222q0 -128 74 -202.5t204 -74.5z" />
    <glyph glyph-name="h" unicode="h" 
d="M762 1083q152 0 242 -87.5t90 -229.5q0 -15 -1 -30t-3.5 -32t-8 -47.5t-12 -63t-19.5 -93t-26 -122t-35.5 -167t-44.5 -211.5h-153q20 94 39.5 188.5t31.5 152.5t24.5 116.5t19 90t13 64.5t9 48.5t5 32t3 26t0.5 20.5q0 96 -54 151.5t-147 55.5q-137 0 -254.5 -83.5
t-140.5 -194.5v2l-139 -670h-154l297 1432h154l-111 -537q62 84 164.5 136t210.5 52z" />
    <glyph glyph-name="i" unicode="i" horiz-adv-x="460" 
d="M379 1251q-41 0 -66.5 26.5t-25.5 65.5q0 42 33.5 76.5t78.5 34.5q39 0 64.5 -26.5t25.5 -65.5q0 -42 -34.5 -76.5t-75.5 -34.5zM43 0l221 1059h154l-221 -1059h-154z" />
    <glyph glyph-name="j" unicode="j" horiz-adv-x="460" 
d="M393 1251q-41 0 -66.5 26.5t-25.5 65.5q0 42 34 76.5t79 34.5q39 0 64.5 -26.5t25.5 -65.5q0 -42 -34.5 -76.5t-76.5 -34.5zM-125 -365q-90 0 -166 35l41 123q52 -20 121 -20q55 0 99.5 40t56.5 99l237 1147h154l-242 -1159q-25 -118 -108.5 -191.5t-192.5 -73.5z" />
    <glyph glyph-name="k" unicode="k" horiz-adv-x="1116" 
d="M1198 1059l-580 -486l328 -573h-186l-268 469l-236 -193l-57 -276h-154l297 1432h154l-199 -959l700 586h201z" />
    <glyph glyph-name="l" unicode="l" horiz-adv-x="464" 
d="M47 0l297 1432h154l-297 -1432h-154z" />
    <glyph glyph-name="m" unicode="m" horiz-adv-x="1832" 
d="M1405 1083q144 0 228.5 -86t84.5 -227q0 -38 -13 -107.5t-67 -325.5q-42 -200 -71 -337h-154q42 201 93 447q55 259 55 288q0 101 -48.5 156t-142.5 55q-120 0 -222.5 -78.5t-125.5 -197.5q-12 -67 -139 -670h-154q42 201 93 447q40 186 47.5 226.5t7.5 61.5
q0 101 -48.5 156t-142.5 55q-117 0 -217 -74.5t-127 -189.5l-143 -682h-154l221 1059h154l-31 -148q57 82 145 127t189 45q117 0 196.5 -60.5t104.5 -164.5q52 103 156.5 164t224.5 61z" />
    <glyph glyph-name="n" unicode="n" 
d="M762 1083q152 0 242 -87.5t90 -229.5q0 -15 -1 -30t-3.5 -32t-8 -47.5t-12 -63t-19.5 -93t-26 -122t-35.5 -167t-44.5 -211.5h-153q20 94 39.5 188.5t31.5 152.5t24.5 116.5t19 90t13 64.5t9 48.5t5 32t3 26t0.5 20.5q0 96 -54 151.5t-147 55.5q-134 0 -249.5 -80
t-143.5 -188l-141 -678h-154l221 1059h154l-33 -162q62 84 164 135t209 51z" />
    <glyph glyph-name="o" unicode="o" horiz-adv-x="1294" 
d="M528 -25q-178 0 -308 134t-130 317q0 175 91 326.5t245 241t332 89.5q181 0 313.5 -133.5t132.5 -316.5q0 -131 -54.5 -252.5t-145.5 -210.5t-216 -142t-260 -53zM557 113q130 0 242.5 69t178.5 186t66 253q0 132 -93 228.5t-222 96.5q-128 0 -238.5 -69.5t-175.5 -187
t-65 -253.5q0 -132 91 -227.5t216 -95.5z" />
    <glyph glyph-name="p" unicode="p" horiz-adv-x="1312" 
d="M817 1083q161 0 279 -124.5t118 -294.5q0 -137 -50.5 -264.5t-134.5 -220.5t-200 -148.5t-241 -55.5q-107 0 -196.5 70t-129.5 182l-121 -579h-153l293 1411h153l-41 -199q81 105 191.5 164t232.5 59zM614 113q118 0 220 73t161.5 197t59.5 268q0 120 -79 207.5
t-188 87.5q-127 0 -236.5 -73t-174 -197t-64.5 -268q0 -120 89 -207.5t212 -87.5z" />
    <glyph glyph-name="q" unicode="q" horiz-adv-x="1312" 
d="M1098 1059h153l-293 -1411h-153l115 553q-81 -105 -191.5 -165.5t-232.5 -60.5q-161 0 -279.5 125t-118.5 297q0 137 50.5 264t135 219.5t200.5 147.5t241 55q106 0 196 -69.5t130 -179.5zM524 113q127 0 236.5 73t174 197t64.5 268q0 120 -90 207.5t-213 87.5
q-117 0 -218 -73t-160.5 -197t-59.5 -268q0 -120 78.5 -207.5t187.5 -87.5z" />
    <glyph glyph-name="r" unicode="r" horiz-adv-x="796" 
d="M391 856q70 106 189 166.5t264 60.5l-19 -137q-180 0 -318.5 -101.5t-170.5 -256.5l-123 -588h-154l222 1059h153z" />
    <glyph glyph-name="s" unicode="s" horiz-adv-x="1013" 
d="M424 -25q-114 0 -223 42.5t-191 119.5l96 105q70 -61 156 -95t168 -34q116 0 200.5 60.5t84.5 143.5q0 46 -51 83t-168 75q-164 47 -236 105.5t-72 144.5q0 158 120 258t308 100q93 0 189.5 -32t173.5 -90l-90 -111q-61 45 -135 70.5t-144 25.5q-117 0 -191.5 -53.5
t-74.5 -136.5q0 -37 53 -72.5t176 -81.5q160 -49 228.5 -109t68.5 -149q0 -99 -60.5 -184t-163.5 -135t-222 -50z" />
    <glyph glyph-name="t" unicode="t" horiz-adv-x="763" 
d="M737 922h-260q-145 -696 -145 -717q0 -42 22 -67t58 -25q38 0 72.5 13.5t54.5 33.5l61 -121q-98 -64 -205 -64q-99 0 -158 59t-59 154q0 42 93 480q32 156 53 254h-166l28 137h166l62 291h153l-61 -291h260z" />
    <glyph glyph-name="u" unicode="u" 
d="M1012 1059h153l-221 -1059h-153l32 162q-62 -84 -163.5 -135.5t-208.5 -51.5q-152 0 -242 87.5t-90 230.5q0 14 0.5 25.5t3 30t5.5 35.5t9.5 51.5t13.5 67t19.5 93t25 118.5t32.5 154t40 191h154q-20 -96 -39.5 -189t-32 -152t-24.5 -117t-19 -90.5t-13.5 -64.5t-9 -48
t-5 -32.5t-3 -26t-0.5 -20.5q0 -95 53.5 -150.5t147.5 -55.5q134 0 249.5 80t143.5 188z" />
    <glyph glyph-name="v" unicode="v" horiz-adv-x="1153" 
d="M395 0l-229 1059h168l168 -879l530 879h176l-665 -1059h-148z" />
    <glyph glyph-name="w" unicode="w" horiz-adv-x="1705" 
d="M315 0l-133 1059h160l86 -854l467 854h133l111 -854l442 854h168l-578 -1059h-145l-102 846l-463 -846h-146z" />
    <glyph glyph-name="x" unicode="x" horiz-adv-x="1128" 
d="M1161 1059l-502 -522l293 -537h-174l-231 422l-406 -422h-186l524 543l-282 516h176l219 -400l385 400h184z" />
    <glyph glyph-name="y" unicode="y" horiz-adv-x="1214" 
d="M135 -369q-94 0 -166 37l54 127q44 -24 112 -24q57 0 99 23t83 77l93 125l-238 1063h166l186 -881l535 881h170l-729 -1184q-81 -131 -169.5 -187.5t-195.5 -56.5z" />
    <glyph glyph-name="z" unicode="z" horiz-adv-x="1054" 
d="M4 0l23 121l788 792h-610l31 146h819l-23 -121l-792 -793h628l-30 -145h-834z" />
    <glyph glyph-name="braceleft" unicode="{" horiz-adv-x="817" 
d="M530 -340q-191 21 -273.5 81.5t-82.5 172.5q0 53 40 234.5t40 224.5q0 62 -37.5 88t-126.5 26l12 113q108 0 167 49t81 152l60 286q34 163 136 238.5t339 101.5l2 -108q-128 -19 -196.5 -47t-101.5 -74.5t-50 -130.5l-60 -295q-20 -96 -68 -149.5t-135 -81.5
q113 -46 113 -166q0 -46 -41 -223t-41 -228q0 -70 52 -101.5t194 -53.5z" />
    <glyph glyph-name="bar" unicode="|" horiz-adv-x="569" 
d="M82 -152l348 1674h123l-348 -1674h-123z" />
    <glyph glyph-name="braceright" unicode="}" horiz-adv-x="819" 
d="M-61 -340l-2 109q185 28 254.5 78.5t95.5 175.5l59 292q20 96 67 150.5t134 83.5q-113 44 -113 166q0 47 42 231.5t42 218.5q0 68 -53 100t-195 54l25 108q190 -22 272 -82t82 -174q0 -56 -39 -231.5t-39 -224.5q0 -62 38 -88.5t126 -26.5l-12 -113q-108 0 -167 -47.5
t-81 -150.5l-61 -289q-22 -109 -71 -175t-145.5 -107t-258.5 -58z" />
    <glyph glyph-name="asciitilde" unicode="~" horiz-adv-x="913" 
d="M618 614q-35 0 -65 14t-50.5 34t-39.5 40t-39.5 34t-42.5 14q-89 0 -141 -146l-93 27q81 237 236 237q35 0 65 -14t51 -34t39.5 -39.5t39.5 -33.5t43 -14q86 0 141 146l92 -27q-81 -238 -236 -238z" />
    <glyph glyph-name="exclamdown" unicode="&#xa1;" horiz-adv-x="557" 
d="M381 1083q44 0 71 -28t27 -70q0 -53 -37.5 -88t-85.5 -35q-42 0 -69 28t-27 68q0 49 37 87t84 38zM362 664l-169 -1012h-189l250 1012h108z" />
    <glyph glyph-name="cent" unicode="&#xa2;" horiz-adv-x="1114" 
d="M815 1079q82 -12 160 -53.5t129 -101.5l-121 -97q-31 43 -84 73.5t-113 41.5l-172 -825q129 18 246 129l92 -113q-170 -141 -366 -156l-27 -129h-160l29 140q-146 37 -242 160t-96 278q0 240 163 425t402 224l27 131h160zM250 436q0 -103 58.5 -187.5t150.5 -117.5
l166 803q-161 -40 -268 -180.5t-107 -317.5z" />
    <glyph glyph-name="sterling" unicode="&#xa3;" horiz-adv-x="1267" 
d="M860 1286q-129 0 -233 -97.5t-135 -246.5l-56 -270h414l-29 -137h-413l-78 -383h766l-33 -152h-1059l14 78l148 74l80 383h-125l29 137h124l60 282q44 212 192.5 345t339.5 133q145 0 254.5 -68t139.5 -172l-136 -102q-7 88 -81 142t-183 54z" />
    <glyph glyph-name="yen" unicode="&#xa5;" horiz-adv-x="1374" 
d="M1520 1407l-650 -733h357l-29 -137h-424l-35 -164h424l-28 -137h-424l-52 -236h-167l51 236h-424l28 137h424l35 164h-424l29 137h356l-348 733h162l330 -696l612 696h197z" />
    <glyph glyph-name="dieresis" unicode="&#xa8;" horiz-adv-x="839" 
d="M379 1223q-39 0 -62.5 25t-23.5 61q0 39 30.5 70.5t71.5 31.5q38 0 62 -25t24 -61q0 -39 -31.5 -70.5t-70.5 -31.5zM772 1223q-39 0 -62.5 25t-23.5 61q0 39 30.5 70.5t71.5 31.5q38 0 62 -25t24 -61q0 -39 -31.5 -70.5t-70.5 -31.5z" />
    <glyph glyph-name="macron" unicode="&#xaf;" horiz-adv-x="892" 
d="M272 1217l23 112h635l-23 -112h-635z" />
    <glyph glyph-name="acute" unicode="&#xb4;" horiz-adv-x="671" 
d="M264 1180l309 295l158 -37l-344 -258h-123z" />
    <glyph glyph-name="cedilla" unicode="&#xb8;" horiz-adv-x="638" 
d="M227 -92q55 0 90 -32t35 -83q0 -82 -66.5 -134t-158.5 -52q-108 0 -176 61l49 78q43 -43 117 -43q63 0 98 23.5t35 64.5q0 26 -16 42.5t-41 16.5q-43 0 -80 -26l-31 39l98 160h111l-74 -115h10z" />
    <glyph glyph-name="questiondown" unicode="&#xbf;" horiz-adv-x="1042" 
d="M674 1083q44 0 71 -28t27 -70q0 -53 -37.5 -88t-85.5 -35q-42 0 -69 28t-27 68q0 49 37 87t84 38zM694 664l-78 -383q-87 -7 -171 -32.5t-153 -65.5t-111 -98t-42 -124q0 -80 58.5 -134t162.5 -54q200 0 398 198l90 -112q-232 -232 -502 -232q-171 0 -271 87.5
t-100 224.5q0 87 42 166t112.5 137.5t157.5 100t182 60.5l53 261h172z" />
    <glyph glyph-name="Agrave" unicode="&#xc0;" horiz-adv-x="1546" 
d="M1042 1528h-114l-238 258l166 37zM1200 0l-76 319h-784l-207 -319h-178l913 1407h176l-2 -2l328 -1405h-170zM438 471h652l-172 739z" />
    <glyph glyph-name="Aacute" unicode="&#xc1;" horiz-adv-x="1546" 
d="M1382 1786l-344 -258h-123l310 295zM1044 1407l-2 -2l328 -1405h-170l-76 319h-784l-207 -319h-178l913 1407h176zM1090 471l-172 739l-480 -739h652z" />
    <glyph glyph-name="Acircumflex" unicode="&#xc2;" horiz-adv-x="1546" 
d="M1024 1704l-199 -176h-120l264 280h143l150 -280h-115zM1200 0l-76 319h-784l-207 -319h-178l913 1407h176l-2 -2l328 -1405h-170zM438 471h652l-172 739z" />
    <glyph glyph-name="Atilde" unicode="&#xc3;" horiz-adv-x="1546" 
d="M889 1661q-89 0 -141 -145l-93 26q81 238 236 238q35 0 65 -14t50.5 -34t39.5 -39.5t39.5 -33.5t42.5 -14q87 0 142 145l92 -27q-81 -237 -236 -237q-35 0 -65 14t-50.5 34t-39.5 39.5t-39.5 33.5t-42.5 14zM1200 0l-76 319h-784l-207 -319h-178l913 1407h176l-2 -2
l328 -1405h-170zM438 471h652l-172 739z" />
    <glyph glyph-name="Adieresis" unicode="&#xc4;" horiz-adv-x="1546" 
d="M807 1571q-39 0 -62.5 25t-23.5 61q0 39 30.5 70.5t71.5 31.5q38 0 62 -25t24 -61q0 -39 -31.5 -70.5t-70.5 -31.5zM1200 1571q-39 0 -62.5 25t-23.5 61q0 39 31 70.5t72 31.5q38 0 62 -25t24 -61q0 -39 -32 -70.5t-71 -31.5zM1200 0l-76 319h-784l-207 -319h-178
l913 1407h176l-2 -2l328 -1405h-170zM438 471h652l-172 739z" />
    <glyph glyph-name="Aring" unicode="&#xc5;" horiz-adv-x="1546" 
d="M989 1554q-76 0 -124 48.5t-48 121.5q0 100 80 176t180 76q75 0 122.5 -47t47.5 -119q0 -102 -79.5 -179t-178.5 -77zM1059 1886q-56 0 -103 -43.5t-47 -99.5q0 -41 28.5 -69.5t70.5 -28.5q56 0 101.5 44.5t45.5 100.5q0 42 -27 69t-69 27zM1200 0l-76 319h-784
l-207 -319h-178l913 1407h176l-2 -2l328 -1405h-170zM438 471h652l-172 739z" />
    <glyph glyph-name="AE" unicode="&#xc6;" horiz-adv-x="2097" 
d="M2136 1255h-850l-92 -462h762l-31 -152h-766l-98 -489h846l-33 -152h-1010l66 319h-535l-250 -319h-190l1106 1407h1106zM514 471h449l161 776z" />
    <glyph glyph-name="Ccedilla" unicode="&#xc7;" horiz-adv-x="1398" 
d="M1024 1432q123 0 249.5 -61.5t203.5 -158.5l-125 -102q-57 77 -157.5 125.5t-201.5 48.5q-140 0 -269.5 -57.5t-223.5 -153.5t-150.5 -227t-56.5 -273q0 -120 62 -224t167.5 -165t227.5 -61q96 0 215.5 51t210.5 131l92 -119q-104 -86 -244.5 -143.5t-263.5 -65.5
l-45 -69h10q55 0 90 -32t35 -83q0 -82 -66.5 -134t-158.5 -52q-108 0 -176 61l49 78q43 -43 116 -43q63 0 98.5 23.5t35.5 64.5q0 26 -16.5 42.5t-41.5 16.5q-43 0 -80 -26l-30 39l71 117q-143 18 -261.5 101.5t-187.5 213.5t-69 278q0 171 72 330t192 274.5t284.5 185
t342.5 69.5z" />
    <glyph glyph-name="Egrave" unicode="&#xc8;" horiz-adv-x="1284" 
d="M1016 1528h-115l-237 258l165 37zM1323 1255h-850l-92 -462h762l-31 -152h-766l-98 -489h846l-33 -152h-1010l293 1407h1010z" />
    <glyph glyph-name="Eacute" unicode="&#xc9;" horiz-adv-x="1284" 
d="M1149 1786l-344 -258h-123l309 295zM1323 1255h-850l-92 -462h762l-31 -152h-766l-98 -489h846l-33 -152h-1010l293 1407h1010z" />
    <glyph glyph-name="Ecircumflex" unicode="&#xca;" horiz-adv-x="1284" 
d="M915 1704l-198 -176h-121l264 280h144l149 -280h-115zM1323 1255h-850l-92 -462h762l-31 -152h-766l-98 -489h846l-33 -152h-1010l293 1407h1010z" />
    <glyph glyph-name="Edieresis" unicode="&#xcb;" horiz-adv-x="1284" 
d="M698 1571q-39 0 -62.5 25t-23.5 61q0 39 31 70.5t72 31.5q38 0 62 -25t24 -61q0 -39 -32 -70.5t-71 -31.5zM1092 1571q-39 0 -62.5 25t-23.5 61q0 39 30.5 70.5t71.5 31.5q38 0 62 -25t24 -61q0 -39 -31.5 -70.5t-70.5 -31.5zM1323 1255h-850l-92 -462h762l-31 -152h-766
l-98 -489h846l-33 -152h-1010l293 1407h1010z" />
    <glyph glyph-name="Igrave" unicode="&#xcc;" horiz-adv-x="483" 
d="M401 1528l-237 258l166 37l186 -295h-115zM51 0l293 1407h160l-293 -1407h-160z" />
    <glyph glyph-name="Iacute" unicode="&#xcd;" horiz-adv-x="483" 
d="M381 1528l309 295l158 -37l-344 -258h-123zM51 0l293 1407h160l-293 -1407h-160z" />
    <glyph glyph-name="Icircumflex" unicode="&#xce;" horiz-adv-x="483" 
d="M170 1528l264 280h144l149 -280h-115l-123 176l-198 -176h-121zM51 0l293 1407h160l-293 -1407h-160z" />
    <glyph glyph-name="Idieresis" unicode="&#xcf;" horiz-adv-x="483" 
d="M272 1571q-39 0 -62.5 25t-23.5 61q0 39 31 70.5t72 31.5q38 0 62 -25t24 -61q0 -39 -32 -70.5t-71 -31.5zM666 1571q-39 0 -62.5 25t-23.5 61q0 39 30.5 70.5t71.5 31.5q38 0 62 -25t24 -61q0 -39 -31.5 -70.5t-70.5 -31.5zM51 0l293 1407h160l-293 -1407h-160z" />
    <glyph glyph-name="Eth" unicode="&#xd0;" horiz-adv-x="1595" 
d="M879 1407q280 0 457 -156.5t177 -402.5q0 -170 -74 -326.5t-197.5 -271t-293 -182.5t-352.5 -68h-481l133 641h-137l30 152h140l127 614h471zM614 145q196 0 366.5 94.5t271 254.5t100.5 344q0 186 -138.5 305t-355.5 119h-319l-99 -469h416l-33 -152h-413l-105 -496h309
z" />
    <glyph glyph-name="Ntilde" unicode="&#xd1;" horiz-adv-x="1576" 
d="M1137 1526q-35 0 -65 14t-51 34t-39.5 39.5t-39.5 33.5t-43 14q-89 0 -141 -145l-92 26q81 238 235 238q35 0 65 -14t51 -34t39.5 -39.5t39.5 -33.5t43 -14q86 0 141 145l92 -27q-81 -237 -235 -237zM82 0l293 1407h157l635 -1145l240 1145h160l-293 -1407h-156
l-635 1145l-241 -1145h-160z" />
    <glyph glyph-name="Ograve" unicode="&#xd2;" horiz-adv-x="1654" 
d="M985 1528l-237 258l165 37l187 -295h-115zM715 -25q-156 0 -290.5 80t-214 217t-79.5 295q0 173 71 332.5t190.5 276.5t283 186.5t340.5 69.5q125 0 233.5 -46t184.5 -124.5t119.5 -188t43.5 -233.5q0 -172 -71.5 -331.5t-190 -276.5t-282 -187t-338.5 -70zM745 123
q139 0 268.5 60t221.5 157.5t147.5 227.5t55.5 266q0 126 -56.5 228.5t-160.5 162t-234 59.5q-139 0 -267 -56.5t-221.5 -151.5t-149.5 -225t-56 -271q0 -186 134 -321.5t318 -135.5z" />
    <glyph glyph-name="Oacute" unicode="&#xd3;" horiz-adv-x="1654" 
d="M973 1528l309 295l158 -37l-344 -258h-123zM715 -25q-156 0 -290.5 80t-214 217t-79.5 295q0 173 71 332.5t190.5 276.5t283 186.5t340.5 69.5q125 0 233.5 -46t184.5 -124.5t119.5 -188t43.5 -233.5q0 -172 -71.5 -331.5t-190 -276.5t-282 -187t-338.5 -70zM745 123
q139 0 268.5 60t221.5 157.5t147.5 227.5t55.5 266q0 126 -56.5 228.5t-160.5 162t-234 59.5q-139 0 -267 -56.5t-221.5 -151.5t-149.5 -225t-56 -271q0 -186 134 -321.5t318 -135.5z" />
    <glyph glyph-name="Ocircumflex" unicode="&#xd4;" horiz-adv-x="1654" 
d="M756 1528l264 280h143l150 -280h-115l-123 176l-198 -176h-121zM715 -25q-156 0 -290.5 80t-214 217t-79.5 295q0 173 71 332.5t190.5 276.5t283 186.5t340.5 69.5q125 0 233.5 -46t184.5 -124.5t119.5 -188t43.5 -233.5q0 -172 -71.5 -331.5t-190 -276.5t-282 -187
t-338.5 -70zM745 123q139 0 268.5 60t221.5 157.5t147.5 227.5t55.5 266q0 126 -56.5 228.5t-160.5 162t-234 59.5q-139 0 -267 -56.5t-221.5 -151.5t-149.5 -225t-56 -271q0 -186 134 -321.5t318 -135.5z" />
    <glyph glyph-name="Otilde" unicode="&#xd5;" horiz-adv-x="1654" 
d="M1178 1526q-35 0 -65 14t-51 34t-39.5 39.5t-39.5 33.5t-43 14q-89 0 -141 -145l-92 26q81 238 235 238q35 0 65 -14t51 -34t39.5 -39.5t39.5 -33.5t43 -14q86 0 141 145l92 -27q-81 -237 -235 -237zM715 -25q-156 0 -290.5 80t-214 217t-79.5 295q0 173 71 332.5
t190.5 276.5t283 186.5t340.5 69.5q125 0 233.5 -46t184.5 -124.5t119.5 -188t43.5 -233.5q0 -172 -71.5 -331.5t-190 -276.5t-282 -187t-338.5 -70zM745 123q139 0 268.5 60t221.5 157.5t147.5 227.5t55.5 266q0 126 -56.5 228.5t-160.5 162t-234 59.5q-139 0 -267 -56.5
t-221.5 -151.5t-149.5 -225t-56 -271q0 -186 134 -321.5t318 -135.5z" />
    <glyph glyph-name="Odieresis" unicode="&#xd6;" horiz-adv-x="1654" 
d="M858 1571q-39 0 -62.5 25t-23.5 61q0 39 30.5 70.5t71.5 31.5q38 0 62.5 -25t24.5 -61q0 -39 -32 -70.5t-71 -31.5zM1251 1571q-39 0 -62.5 25t-23.5 61q0 39 31 70.5t72 31.5q38 0 62 -25t24 -61q0 -39 -32 -70.5t-71 -31.5zM715 -25q-156 0 -290.5 80t-214 217
t-79.5 295q0 173 71 332.5t190.5 276.5t283 186.5t340.5 69.5q125 0 233.5 -46t184.5 -124.5t119.5 -188t43.5 -233.5q0 -172 -71.5 -331.5t-190 -276.5t-282 -187t-338.5 -70zM745 123q139 0 268.5 60t221.5 157.5t147.5 227.5t55.5 266q0 126 -56.5 228.5t-160.5 162
t-234 59.5q-139 0 -267 -56.5t-221.5 -151.5t-149.5 -225t-56 -271q0 -186 134 -321.5t318 -135.5z" />
    <glyph glyph-name="multiply" unicode="&#xd7;" horiz-adv-x="1107" 
d="M1030 963l-336 -279l221 -276l-127 -109l-221 279l-334 -279l-90 107l336 280l-221 277l127 108l223 -278l334 278z" />
    <glyph glyph-name="Oslash" unicode="&#xd8;" horiz-adv-x="1654" 
d="M1720 1407l-231 -213q108 -151 108 -354q0 -172 -71.5 -331.5t-190 -276.5t-282 -187t-338.5 -70q-107 0 -206 39.5t-177 110.5l-135 -125h-179l232 213q-119 161 -119 354q0 173 71 332.5t190.5 276.5t283 186.5t340.5 69.5q232 0 393 -148l133 123h178zM293 580
q0 -136 78 -254l919 850q-124 108 -303 108q-139 0 -267 -56.5t-221.5 -151.5t-149.5 -225t-56 -271zM1438 834q0 138 -70 247l-917 -845q129 -113 294 -113q139 0 268.5 60t221.5 157.5t147.5 227.5t55.5 266z" />
    <glyph glyph-name="Ugrave" unicode="&#xd9;" horiz-adv-x="1527" 
d="M997 1528l-237 258l166 37l186 -295h-115zM651 -25q-128 0 -228.5 45.5t-160.5 127t-81.5 194.5t7.5 248l170 817h160l-172 -829q-41 -201 52.5 -329t281.5 -128q189 0 336 131.5t188 337.5l170 817h160l-172 -829q-56 -265 -255 -434t-456 -169z" />
    <glyph glyph-name="Uacute" unicode="&#xda;" horiz-adv-x="1527" 
d="M778 1528l309 295l158 -37l-344 -258h-123zM651 -25q-128 0 -228.5 45.5t-160.5 127t-81.5 194.5t7.5 248l170 817h160l-172 -829q-41 -201 52.5 -329t281.5 -128q189 0 336 131.5t188 337.5l170 817h160l-172 -829q-56 -265 -255 -434t-456 -169z" />
    <glyph glyph-name="Ucircumflex" unicode="&#xdb;" horiz-adv-x="1527" 
d="M692 1528l264 280h144l149 -280h-114l-123 176l-199 -176h-121zM651 -25q-128 0 -228.5 45.5t-160.5 127t-81.5 194.5t7.5 248l170 817h160l-172 -829q-41 -201 52.5 -329t281.5 -128q189 0 336 131.5t188 337.5l170 817h160l-172 -829q-56 -265 -255 -434t-456 -169z
" />
    <glyph glyph-name="Udieresis" unicode="&#xdc;" horiz-adv-x="1527" 
d="M795 1571q-39 0 -62.5 25t-23.5 61q0 39 30.5 70.5t71.5 31.5q38 0 62 -25t24 -61q0 -39 -31.5 -70.5t-70.5 -31.5zM1188 1571q-39 0 -62.5 25t-23.5 61q0 39 30.5 70.5t71.5 31.5q38 0 62 -25t24 -61q0 -39 -31.5 -70.5t-70.5 -31.5zM651 -25q-128 0 -228.5 45.5
t-160.5 127t-81.5 194.5t7.5 248l170 817h160l-172 -829q-41 -201 52.5 -329t281.5 -128q189 0 336 131.5t188 337.5l170 817h160l-172 -829q-56 -265 -255 -434t-456 -169z" />
    <glyph glyph-name="Yacute" unicode="&#xdd;" horiz-adv-x="1374" 
d="M684 1528l309 295l158 -37l-344 -258h-123zM492 0l122 573l-395 834h162l330 -696l612 696h197l-738 -834l-123 -573h-167z" />
    <glyph glyph-name="Thorn" unicode="&#xde;" horiz-adv-x="1320" 
d="M51 0l293 1407h164l-51 -248h401q193 0 315.5 -103t122.5 -268q0 -148 -86 -270.5t-226.5 -191t-301.5 -68.5h-416l-55 -258h-160zM297 410h377q193 0 328 104.5t135 265.5q0 108 -86.5 168t-239.5 60h-389z" />
    <glyph glyph-name="germandbls" unicode="&#xdf;" horiz-adv-x="1179" 
d="M61 0l228 1083q34 162 170.5 263.5t320.5 101.5q168 0 267.5 -84t99.5 -221q0 -128 -74 -231.5t-203 -170.5q90 -51 138.5 -124.5t48.5 -165.5q0 -125 -68.5 -229.5t-182.5 -163t-247 -58.5h-184l31 145h131q147 0 256.5 97.5t109.5 226.5q0 90 -66.5 143.5t-179.5 53.5
h-143l31 145h106q130 0 231 95t101 214q0 82 -57.5 132.5t-155.5 50.5q-119 0 -213 -74t-117 -185l-219 -1044h-160z" />
    <glyph glyph-name="agrave" unicode="&#xe0;" horiz-adv-x="1310" 
d="M889 1180h-115l-237 258l165 37zM1098 1059h153l-221 -1059h-153l41 199q-81 -105 -191 -164.5t-231 -59.5q-161 0 -279.5 125t-118.5 297q0 137 50.5 264t135 219.5t200.5 147.5t241 55q106 0 195 -69.5t131 -179.5zM524 113q127 0 236.5 73t174 197t64.5 268
q0 120 -90 207.5t-213 87.5q-117 0 -218 -73t-160.5 -197t-59.5 -268q0 -120 78.5 -207.5t187.5 -87.5z" />
    <glyph glyph-name="aacute" unicode="&#xe1;" horiz-adv-x="1310" 
d="M1022 1438l-344 -258h-123l309 295zM1098 1059h153l-221 -1059h-153l41 199q-81 -105 -191 -164.5t-231 -59.5q-161 0 -279.5 125t-118.5 297q0 137 50.5 264t135 219.5t200.5 147.5t241 55q106 0 195 -69.5t131 -179.5zM524 113q127 0 236.5 73t174 197t64.5 268
q0 120 -90 207.5t-213 87.5q-117 0 -218 -73t-160.5 -197t-59.5 -268q0 -120 78.5 -207.5t187.5 -87.5z" />
    <glyph glyph-name="acircumflex" unicode="&#xe2;" horiz-adv-x="1310" 
d="M788 1356l-198 -176h-121l264 280h144l149 -280h-115zM1098 1059h153l-221 -1059h-153l41 199q-81 -105 -191 -164.5t-231 -59.5q-161 0 -279.5 125t-118.5 297q0 137 50.5 264t135 219.5t200.5 147.5t241 55q106 0 195 -69.5t131 -179.5zM524 113q127 0 236.5 73
t174 197t64.5 268q0 120 -90 207.5t-213 87.5q-117 0 -218 -73t-160.5 -197t-59.5 -268q0 -120 78.5 -207.5t187.5 -87.5z" />
    <glyph glyph-name="atilde" unicode="&#xe3;" horiz-adv-x="1310" 
d="M653 1313q-89 0 -141 -146l-92 27q81 238 235 238q35 0 65 -14t51 -34t39.5 -40t39.5 -34t43 -14q86 0 141 146l92 -27q-81 -237 -235 -237q-35 0 -65 14t-51 34t-39.5 39.5t-39.5 33.5t-43 14zM1098 1059h153l-221 -1059h-153l41 199q-81 -105 -191 -164.5t-231 -59.5
q-161 0 -279.5 125t-118.5 297q0 137 50.5 264t135 219.5t200.5 147.5t241 55q106 0 195 -69.5t131 -179.5zM524 113q127 0 236.5 73t174 197t64.5 268q0 120 -90 207.5t-213 87.5q-117 0 -218 -73t-160.5 -197t-59.5 -268q0 -120 78.5 -207.5t187.5 -87.5z" />
    <glyph glyph-name="adieresis" unicode="&#xe4;" horiz-adv-x="1310" 
d="M571 1223q-39 0 -62.5 25t-23.5 61q0 39 31 70.5t72 31.5q38 0 62 -25t24 -61q0 -39 -32 -70.5t-71 -31.5zM965 1223q-39 0 -62.5 25t-23.5 61q0 39 30.5 70.5t71.5 31.5q38 0 62 -25t24 -61q0 -39 -31.5 -70.5t-70.5 -31.5zM1098 1059h153l-221 -1059h-153l41 199
q-81 -105 -191 -164.5t-231 -59.5q-161 0 -279.5 125t-118.5 297q0 137 50.5 264t135 219.5t200.5 147.5t241 55q106 0 195 -69.5t131 -179.5zM524 113q127 0 236.5 73t174 197t64.5 268q0 120 -90 207.5t-213 87.5q-117 0 -218 -73t-160.5 -197t-59.5 -268
q0 -120 78.5 -207.5t187.5 -87.5z" />
    <glyph glyph-name="aring" unicode="&#xe5;" horiz-adv-x="1310" 
d="M754 1206q-76 0 -124 48.5t-48 121.5q0 100 80 176t180 76q76 0 123 -47t47 -119q0 -102 -79.5 -179t-178.5 -77zM823 1538q-56 0 -102.5 -43.5t-46.5 -99.5q0 -42 28 -70.5t70 -28.5q56 0 102 45t46 101q0 42 -27 69t-70 27zM1098 1059h153l-221 -1059h-153l41 199
q-81 -105 -191 -164.5t-231 -59.5q-161 0 -279.5 125t-118.5 297q0 137 50.5 264t135 219.5t200.5 147.5t241 55q106 0 195 -69.5t131 -179.5zM524 113q127 0 236.5 73t174 197t64.5 268q0 120 -90 207.5t-213 87.5q-117 0 -218 -73t-160.5 -197t-59.5 -268
q0 -120 78.5 -207.5t187.5 -87.5z" />
    <glyph glyph-name="ae" unicode="&#xe6;" horiz-adv-x="1925" 
d="M1376 471h-372q-3 -21 -3 -41q0 -145 82 -231t222 -86q96 0 197 38t161 93l82 -109q-81 -72 -217 -116t-250 -44q-134 0 -235.5 64.5t-151.5 177.5q-88 -109 -219.5 -175.5t-268.5 -66.5q-195 0 -287 93.5t-57 257.5q30 150 167.5 245t308.5 95q166 0 342 -64l10 49
q9 46 10.5 86.5t-9 81t-34.5 69t-70 46.5t-110 18q-126 0 -334 -98l-47 129q221 100 395 100q144 0 230.5 -56.5t115.5 -158.5q94 100 215.5 157.5t249.5 57.5q101 0 186.5 -34.5t139 -102t53.5 -155.5q0 -142 -135 -231t-367 -89zM1487 946q-156 0 -277.5 -96.5
t-175.5 -241.5h371q154 0 237.5 45.5t83.5 128.5q0 75 -67 119.5t-172 44.5zM838 422l16 74q-137 41 -301 41q-124 0 -226 -66t-122 -164q-20 -93 41 -144.5t190 -51.5q136 0 256.5 93t145.5 218z" />
    <glyph glyph-name="ccedilla" unicode="&#xe7;" horiz-adv-x="1114" 
d="M760 1083q92 0 188 -44.5t156 -114.5l-121 -97q-37 52 -107.5 85.5t-144.5 33.5q-129 0 -240 -69.5t-176 -187t-65 -253.5q0 -132 91 -227.5t216 -95.5q161 0 303 133l92 -113q-166 -141 -372 -156l-45 -69h10q55 0 90 -32t35 -83q0 -82 -66.5 -134t-159.5 -52
q-108 0 -176 61l49 78q43 -43 117 -43q63 0 98 23.5t35 64.5q0 26 -16 42.5t-41 16.5q-43 0 -80 -26l-31 39l72 117q-161 23 -271 151.5t-110 294.5q0 131 54 252.5t144 210t214 141.5t258 53z" />
    <glyph glyph-name="egrave" unicode="&#xe8;" horiz-adv-x="1163" 
d="M899 1180h-115l-237 258l166 37zM614 471h-372q-2 -14 -2 -41q0 -145 81.5 -231t221.5 -86q96 0 197 38t161 93l82 -109q-81 -72 -217 -116t-250 -44q-188 0 -308 123t-120 320q0 129 55 252t144 213t208 145t242 55q101 0 186.5 -34.5t139 -102t53.5 -155.5
q0 -142 -135 -231t-367 -89zM725 946q-156 0 -277.5 -96.5t-175.5 -241.5h371q154 0 238 45.5t84 128.5q0 75 -67.5 119.5t-172.5 44.5z" />
    <glyph glyph-name="eacute" unicode="&#xe9;" horiz-adv-x="1163" 
d="M1032 1438l-344 -258h-123l309 295zM614 471h-372q-2 -14 -2 -41q0 -145 81.5 -231t221.5 -86q96 0 197 38t161 93l82 -109q-81 -72 -217 -116t-250 -44q-188 0 -308 123t-120 320q0 129 55 252t144 213t208 145t242 55q101 0 186.5 -34.5t139 -102t53.5 -155.5
q0 -142 -135 -231t-367 -89zM725 946q-156 0 -277.5 -96.5t-175.5 -241.5h371q154 0 238 45.5t84 128.5q0 75 -67.5 119.5t-172.5 44.5z" />
    <glyph glyph-name="ecircumflex" unicode="&#xea;" horiz-adv-x="1163" 
d="M799 1356l-199 -176h-121l264 280h144l149 -280h-114zM614 471h-372q-2 -14 -2 -41q0 -145 81.5 -231t221.5 -86q96 0 197 38t161 93l82 -109q-81 -72 -217 -116t-250 -44q-188 0 -308 123t-120 320q0 129 55 252t144 213t208 145t242 55q101 0 186.5 -34.5t139 -102
t53.5 -155.5q0 -142 -135 -231t-367 -89zM725 946q-156 0 -277.5 -96.5t-175.5 -241.5h371q154 0 238 45.5t84 128.5q0 75 -67.5 119.5t-172.5 44.5z" />
    <glyph glyph-name="edieresis" unicode="&#xeb;" horiz-adv-x="1163" 
d="M582 1223q-39 0 -62.5 25t-23.5 61q0 39 30.5 70.5t71.5 31.5q38 0 62 -25t24 -61q0 -39 -31.5 -70.5t-70.5 -31.5zM975 1223q-39 0 -62.5 25t-23.5 61q0 39 30.5 70.5t71.5 31.5q38 0 62 -25t24 -61q0 -39 -31.5 -70.5t-70.5 -31.5zM614 471h-372q-2 -14 -2 -41
q0 -145 81.5 -231t221.5 -86q96 0 197 38t161 93l82 -109q-81 -72 -217 -116t-250 -44q-188 0 -308 123t-120 320q0 129 55 252t144 213t208 145t242 55q101 0 186.5 -34.5t139 -102t53.5 -155.5q0 -142 -135 -231t-367 -89zM725 946q-156 0 -277.5 -96.5t-175.5 -241.5h371
q154 0 238 45.5t84 128.5q0 75 -67.5 119.5t-172.5 44.5z" />
    <glyph glyph-name="igrave" unicode="&#xec;" horiz-adv-x="460" 
d="M303 1180l-237 258l165 37l187 -295h-115zM43 0l221 1059h154l-221 -1059h-154z" />
    <glyph glyph-name="iacute" unicode="&#xed;" horiz-adv-x="460" 
d="M303 1180l309 295l158 -37l-344 -258h-123zM43 0l221 1059h154l-221 -1059h-154z" />
    <glyph glyph-name="icircumflex" unicode="&#xee;" horiz-adv-x="460" 
d="M88 1180l264 280h144l149 -280h-115l-122 176l-199 -176h-121zM43 0l221 1059h154l-221 -1059h-154z" />
    <glyph glyph-name="idieresis" unicode="&#xef;" horiz-adv-x="460" 
d="M190 1223q-39 0 -62.5 25t-23.5 61q0 39 31 70.5t72 31.5q38 0 62 -25t24 -61q0 -39 -32 -70.5t-71 -31.5zM584 1223q-39 0 -62.5 25t-23.5 61q0 39 30.5 70.5t71.5 31.5q38 0 62 -25t24 -61q0 -39 -31.5 -70.5t-70.5 -31.5zM43 0l221 1059h154l-221 -1059h-154z" />
    <glyph glyph-name="eth" unicode="&#xf0;" horiz-adv-x="1288" 
d="M944 1243q121 -136 180.5 -267t59.5 -276q0 -139 -49 -271t-132.5 -232.5t-204 -161t-255.5 -60.5q-198 0 -316 114.5t-118 303.5q0 163 77 307t212.5 232t295.5 88q198 0 318 -166q-49 168 -201 334l-276 -113l-31 127l209 86q-57 50 -144 119l160 55l123 -116l225 92
l31 -127zM551 115q121 0 227 68.5t168 181t62 237.5t-74 204t-207 79q-124 0 -230.5 -68t-167.5 -181t-61 -241t76 -204t207 -76z" />
    <glyph glyph-name="ntilde" unicode="&#xf1;" 
d="M651 1313q-89 0 -141 -146l-92 27q81 238 235 238q35 0 65 -14t51 -34t39.5 -40t39.5 -34t43 -14q86 0 141 146l92 -27q-81 -237 -235 -237q-35 0 -65 14t-51 34t-39.5 39.5t-39.5 33.5t-43 14zM762 1083q152 0 242 -87.5t90 -229.5q0 -15 -1 -30t-3.5 -32t-8 -47.5
t-12 -63t-19.5 -93t-26 -122t-35.5 -167t-44.5 -211.5h-153q20 94 39.5 188.5t31.5 152.5t24.5 116.5t19 90t13 64.5t9 48.5t5 32t3 26t0.5 20.5q0 96 -54 151.5t-147 55.5q-134 0 -249.5 -80t-143.5 -188l-141 -678h-154l221 1059h154l-33 -162q62 84 164 135t209 51z" />
    <glyph glyph-name="ograve" unicode="&#xf2;" horiz-adv-x="1294" 
d="M801 1180l-238 258l166 37l186 -295h-114zM528 -25q-178 0 -308 134t-130 317q0 175 91 326.5t245 241t332 89.5q181 0 313.5 -133.5t132.5 -316.5q0 -131 -54.5 -252.5t-145.5 -210.5t-216 -142t-260 -53zM557 113q130 0 242.5 69t178.5 186t66 253q0 132 -93 228.5
t-222 96.5q-128 0 -238.5 -69.5t-175.5 -187t-65 -253.5q0 -132 91 -227.5t216 -95.5z" />
    <glyph glyph-name="oacute" unicode="&#xf3;" horiz-adv-x="1294" 
d="M582 1180l309 295l158 -37l-344 -258h-123zM528 -25q-178 0 -308 134t-130 317q0 175 91 326.5t245 241t332 89.5q181 0 313.5 -133.5t132.5 -316.5q0 -131 -54.5 -252.5t-145.5 -210.5t-216 -142t-260 -53zM557 113q130 0 242.5 69t178.5 186t66 253q0 132 -93 228.5
t-222 96.5q-128 0 -238.5 -69.5t-175.5 -187t-65 -253.5q0 -132 91 -227.5t216 -95.5z" />
    <glyph glyph-name="ocircumflex" unicode="&#xf4;" horiz-adv-x="1294" 
d="M496 1180l264 280h143l150 -280h-115l-123 176l-199 -176h-120zM528 -25q-178 0 -308 134t-130 317q0 175 91 326.5t245 241t332 89.5q181 0 313.5 -133.5t132.5 -316.5q0 -131 -54.5 -252.5t-145.5 -210.5t-216 -142t-260 -53zM557 113q130 0 242.5 69t178.5 186t66 253
q0 132 -93 228.5t-222 96.5q-128 0 -238.5 -69.5t-175.5 -187t-65 -253.5q0 -132 91 -227.5t216 -95.5z" />
    <glyph glyph-name="otilde" unicode="&#xf5;" horiz-adv-x="1294" 
d="M918 1178q-35 0 -65 14t-51 34t-39.5 39.5t-39.5 33.5t-43 14q-89 0 -141 -146l-93 27q81 238 236 238q35 0 65 -14t51 -34t39.5 -40t39.5 -34t43 -14q86 0 141 146l92 -27q-81 -237 -235 -237zM528 -25q-178 0 -308 134t-130 317q0 175 91 326.5t245 241t332 89.5
q181 0 313.5 -133.5t132.5 -316.5q0 -131 -54.5 -252.5t-145.5 -210.5t-216 -142t-260 -53zM557 113q130 0 242.5 69t178.5 186t66 253q0 132 -93 228.5t-222 96.5q-128 0 -238.5 -69.5t-175.5 -187t-65 -253.5q0 -132 91 -227.5t216 -95.5z" />
    <glyph glyph-name="odieresis" unicode="&#xf6;" horiz-adv-x="1294" 
d="M598 1223q-39 0 -62.5 25t-23.5 61q0 39 30.5 70.5t71.5 31.5q38 0 62 -25t24 -61q0 -39 -31.5 -70.5t-70.5 -31.5zM991 1223q-39 0 -62.5 25t-23.5 61q0 39 31 70.5t72 31.5q38 0 62 -25t24 -61q0 -39 -32 -70.5t-71 -31.5zM528 -25q-178 0 -308 134t-130 317
q0 175 91 326.5t245 241t332 89.5q181 0 313.5 -133.5t132.5 -316.5q0 -131 -54.5 -252.5t-145.5 -210.5t-216 -142t-260 -53zM557 113q130 0 242.5 69t178.5 186t66 253q0 132 -93 228.5t-222 96.5q-128 0 -238.5 -69.5t-175.5 -187t-65 -253.5q0 -132 91 -227.5t216 -95.5
z" />
    <glyph glyph-name="divide" unicode="&#xf7;" horiz-adv-x="1216" 
d="M700 905q-45 0 -72.5 28.5t-27.5 70.5q0 53 37.5 87.5t85.5 34.5q42 0 70 -29t28 -69q0 -49 -38 -86t-83 -37zM154 608l32 152h940l-32 -152h-940zM563 242q-45 0 -72.5 28t-27.5 70q0 53 37.5 88t85.5 35q42 0 69 -28t27 -68q0 -49 -36.5 -87t-82.5 -38z" />
    <glyph glyph-name="oslash" unicode="&#xf8;" horiz-adv-x="1294" 
d="M1298 1059l-178 -168q84 -117 84 -258q0 -131 -54.5 -252.5t-145.5 -210.5t-216 -142t-260 -53q-146 0 -272 101l-82 -76h-178l176 166q-82 119 -82 260q0 175 91 326.5t245 241t332 89.5q154 0 280 -102l82 78h178zM250 436q0 -86 41 -157l633 595q-85 72 -195 72
q-128 0 -238.5 -69.5t-175.5 -187t-65 -253.5zM1044 621q0 89 -40 159l-635 -598q85 -69 188 -69q130 0 242.5 69t178.5 186t66 253z" />
    <glyph glyph-name="ugrave" unicode="&#xf9;" 
d="M889 1180h-115l-237 258l165 37zM1012 1059h153l-221 -1059h-153l32 162q-62 -84 -163.5 -135.5t-208.5 -51.5q-152 0 -242 87.5t-90 230.5q0 14 0.5 25.5t3 30t5.5 35.5t9.5 51.5t13.5 67t19.5 93t25 118.5t32.5 154t40 191h154q-20 -96 -39.5 -189t-32 -152t-24.5 -117
t-19 -90.5t-13.5 -64.5t-9 -48t-5 -32.5t-3 -26t-0.5 -20.5q0 -95 53.5 -150.5t147.5 -55.5q134 0 249.5 80t143.5 188z" />
    <glyph glyph-name="uacute" unicode="&#xfa;" 
d="M1022 1438l-344 -258h-123l309 295zM1012 1059h153l-221 -1059h-153l32 162q-62 -84 -163.5 -135.5t-208.5 -51.5q-152 0 -242 87.5t-90 230.5q0 14 0.5 25.5t3 30t5.5 35.5t9.5 51.5t13.5 67t19.5 93t25 118.5t32.5 154t40 191h154q-20 -96 -39.5 -189t-32 -152
t-24.5 -117t-19 -90.5t-13.5 -64.5t-9 -48t-5 -32.5t-3 -26t-0.5 -20.5q0 -95 53.5 -150.5t147.5 -55.5q134 0 249.5 80t143.5 188z" />
    <glyph glyph-name="ucircumflex" unicode="&#xfb;" 
d="M788 1356l-198 -176h-121l264 280h144l149 -280h-115zM1012 1059h153l-221 -1059h-153l32 162q-62 -84 -163.5 -135.5t-208.5 -51.5q-152 0 -242 87.5t-90 230.5q0 14 0.5 25.5t3 30t5.5 35.5t9.5 51.5t13.5 67t19.5 93t25 118.5t32.5 154t40 191h154q-20 -96 -39.5 -189
t-32 -152t-24.5 -117t-19 -90.5t-13.5 -64.5t-9 -48t-5 -32.5t-3 -26t-0.5 -20.5q0 -95 53.5 -150.5t147.5 -55.5q134 0 249.5 80t143.5 188z" />
    <glyph glyph-name="udieresis" unicode="&#xfc;" 
d="M571 1223q-39 0 -62.5 25t-23.5 61q0 39 31 70.5t72 31.5q38 0 62 -25t24 -61q0 -39 -32 -70.5t-71 -31.5zM965 1223q-39 0 -62.5 25t-23.5 61q0 39 30.5 70.5t71.5 31.5q38 0 62 -25t24 -61q0 -39 -31.5 -70.5t-70.5 -31.5zM1012 1059h153l-221 -1059h-153l32 162
q-62 -84 -163.5 -135.5t-208.5 -51.5q-152 0 -242 87.5t-90 230.5q0 14 0.5 25.5t3 30t5.5 35.5t9.5 51.5t13.5 67t19.5 93t25 118.5t32.5 154t40 191h154q-20 -96 -39.5 -189t-32 -152t-24.5 -117t-19 -90.5t-13.5 -64.5t-9 -48t-5 -32.5t-3 -26t-0.5 -20.5
q0 -95 53.5 -150.5t147.5 -55.5q134 0 249.5 80t143.5 188z" />
    <glyph glyph-name="yacute" unicode="&#xfd;" horiz-adv-x="1214" 
d="M541 1180l309 295l158 -37l-344 -258h-123zM135 -369q-94 0 -166 37l54 127q44 -24 112 -24q57 0 99 23t83 77l93 125l-238 1063h166l186 -881l535 881h170l-729 -1184q-81 -131 -169.5 -187.5t-195.5 -56.5z" />
    <glyph glyph-name="thorn" unicode="&#xfe;" horiz-adv-x="1312" 
d="M817 1083q161 0 279 -124.5t118 -294.5q0 -137 -50.5 -264.5t-134.5 -220.5t-200 -148.5t-241 -55.5q-107 0 -196.5 70t-129.5 182l-121 -579h-153l370 1784h154l-119 -572q81 105 191.5 164t232.5 59zM614 113q118 0 220 73t161.5 197t59.5 268q0 120 -79 207.5
t-188 87.5q-127 0 -236.5 -73t-174 -197t-64.5 -268q0 -120 89 -207.5t212 -87.5z" />
    <glyph glyph-name="ydieresis" unicode="&#xff;" horiz-adv-x="1214" 
d="M557 1223q-39 0 -62.5 25t-23.5 61q0 39 30.5 70.5t71.5 31.5q38 0 62 -25t24 -61q0 -39 -31.5 -70.5t-70.5 -31.5zM950 1223q-39 0 -62.5 25t-23.5 61q0 39 31 70.5t72 31.5q38 0 62 -25t24 -61q0 -39 -32 -70.5t-71 -31.5zM135 -369q-94 0 -166 37l54 127
q44 -24 112 -24q57 0 99 23t83 77l93 125l-238 1063h166l186 -881l535 881h170l-729 -1184q-81 -131 -169.5 -187.5t-195.5 -56.5z" />
    <glyph glyph-name="Amacron" unicode="&#x100;" horiz-adv-x="1546" 
d="M1331 1677l-22 -112h-635l22 112h635zM1200 0l-76 319h-784l-207 -319h-178l913 1407h176l-2 -2l328 -1405h-170zM438 471h652l-172 739z" />
    <glyph glyph-name="amacron" unicode="&#x101;" horiz-adv-x="1310" 
d="M1096 1329l-23 -112h-635l23 112h635zM1098 1059h153l-221 -1059h-153l41 199q-81 -105 -191 -164.5t-231 -59.5q-161 0 -279.5 125t-118.5 297q0 137 50.5 264t135 219.5t200.5 147.5t241 55q106 0 195 -69.5t131 -179.5zM524 113q127 0 236.5 73t174 197t64.5 268
q0 120 -90 207.5t-213 87.5q-117 0 -218 -73t-160.5 -197t-59.5 -268q0 -120 78.5 -207.5t187.5 -87.5z" />
    <glyph glyph-name="Abreve" unicode="&#x102;" horiz-adv-x="1546" 
d="M999 1554q-172 0 -280 127l108 88q31 -39 79.5 -60t99.5 -21q115 0 227 90l84 -105q-142 -119 -318 -119zM1200 0l-76 319h-784l-207 -319h-178l913 1407h176l-2 -2l328 -1405h-170zM438 471h652l-172 739z" />
    <glyph glyph-name="abreve" unicode="&#x103;" horiz-adv-x="1310" 
d="M764 1206q-173 0 -281 127l109 88q32 -39 79.5 -60.5t98.5 -21.5q114 0 227 91l84 -105q-142 -119 -317 -119zM1098 1059h153l-221 -1059h-153l41 199q-81 -105 -191 -164.5t-231 -59.5q-161 0 -279.5 125t-118.5 297q0 137 50.5 264t135 219.5t200.5 147.5t241 55
q106 0 195 -69.5t131 -179.5zM524 113q127 0 236.5 73t174 197t64.5 268q0 120 -90 207.5t-213 87.5q-117 0 -218 -73t-160.5 -197t-59.5 -268q0 -120 78.5 -207.5t187.5 -87.5z" />
    <glyph glyph-name="Aogonek" unicode="&#x104;" horiz-adv-x="1546" 
d="M1421 -190l54 -109q-78 -55 -177 -55q-88 0 -140 46.5t-52 127.5q0 59 25 108.5t67 81.5l-74 309h-784l-207 -319h-178l913 1407h176l-2 -2l328 -1403l6 -2q-67 0 -110 -44.5t-43 -113.5q0 -35 23.5 -55t64.5 -20q67 0 110 43zM438 471h652l-172 739z" />
    <glyph glyph-name="aogonek" unicode="&#x105;" horiz-adv-x="1310" 
d="M971 -233q67 0 110 43l54 -109q-78 -55 -177 -55q-88 0 -140 46.5t-52 127.5q0 66 32.5 121.5t84.5 87.5l35 170q-81 -105 -191 -164.5t-231 -59.5q-161 0 -279.5 125t-118.5 297q0 137 50.5 264t135 219.5t200.5 147.5t241 55q106 0 195 -69.5t131 -179.5l47 225h153
l-221 -1057l6 -2q-67 0 -110 -44.5t-43 -113.5q0 -35 23.5 -55t64.5 -20zM524 113q127 0 236.5 73t174 197t64.5 268q0 120 -90 207.5t-213 87.5q-117 0 -218 -73t-160.5 -197t-59.5 -268q0 -120 78.5 -207.5t187.5 -87.5z" />
    <glyph glyph-name="Cacute" unicode="&#x106;" horiz-adv-x="1398" 
d="M821 1528l309 295l158 -37l-344 -258h-123zM721 -25q-157 0 -292.5 81t-215.5 219t-80 298q0 171 72 330t192 274.5t284.5 185t342.5 69.5q123 0 249.5 -61.5t203.5 -158.5l-125 -102q-57 77 -157.5 125.5t-201.5 48.5q-140 0 -269.5 -57.5t-223.5 -153.5t-150.5 -227
t-56.5 -273q0 -120 62 -224t167.5 -165t227.5 -61q96 0 215.5 51t210.5 131l92 -119q-113 -92 -266.5 -151.5t-280.5 -59.5z" />
    <glyph glyph-name="cacute" unicode="&#x107;" horiz-adv-x="1114" 
d="M563 1180l309 295l158 -37l-344 -258h-123zM530 -25q-118 0 -219.5 61.5t-161 165.5t-59.5 224q0 131 54 252.5t144 210t214 141.5t258 53q92 0 188 -44.5t156 -114.5l-121 -97q-37 52 -107.5 85.5t-144.5 33.5q-129 0 -240 -69.5t-176 -187t-65 -253.5q0 -132 91 -227.5
t216 -95.5q161 0 303 133l92 -113q-189 -158 -422 -158z" />
    <glyph glyph-name="Ccaron" unicode="&#x10c;" horiz-adv-x="1398" 
d="M944 1528l-145 280h112l121 -176l201 176h123l-269 -280h-143zM721 -25q-157 0 -292.5 81t-215.5 219t-80 298q0 171 72 330t192 274.5t284.5 185t342.5 69.5q123 0 249.5 -61.5t203.5 -158.5l-125 -102q-57 77 -157.5 125.5t-201.5 48.5q-140 0 -269.5 -57.5
t-223.5 -153.5t-150.5 -227t-56.5 -273q0 -120 62 -224t167.5 -165t227.5 -61q96 0 215.5 51t210.5 131l92 -119q-113 -92 -266.5 -151.5t-280.5 -59.5z" />
    <glyph glyph-name="ccaron" unicode="&#x10d;" horiz-adv-x="1114" 
d="M686 1180l-145 280h112l121 -176l201 176h123l-269 -280h-143zM530 -25q-118 0 -219.5 61.5t-161 165.5t-59.5 224q0 131 54 252.5t144 210t214 141.5t258 53q92 0 188 -44.5t156 -114.5l-121 -97q-37 52 -107.5 85.5t-144.5 33.5q-129 0 -240 -69.5t-176 -187
t-65 -253.5q0 -132 91 -227.5t216 -95.5q161 0 303 133l92 -113q-189 -158 -422 -158z" />
    <glyph glyph-name="Dcaron" unicode="&#x10e;" horiz-adv-x="1562" 
d="M801 1528l-146 280h113l121 -176l201 176h122l-268 -280h-143zM82 0l293 1407h471q280 0 457.5 -156.5t177.5 -402.5q0 -170 -74 -326.5t-197.5 -271t-293.5 -182.5t-353 -68h-481zM272 145h310q147 0 283 56t235.5 149.5t159 221.5t59.5 266q0 186 -138.5 305
t-355.5 119h-319z" />
    <glyph glyph-name="dcaron" unicode="&#x10f;" horiz-adv-x="1308" 
d="M1051 836l123 596h153l-297 -1432h-153l41 197q-81 -103 -191 -162.5t-231 -59.5q-161 0 -279.5 125t-118.5 297q0 137 50.5 264t135 219.5t200.5 147.5t241 55q106 0 195 -69t131 -178zM1565 1432q43 0 66.5 -29t23.5 -78q0 -31 -10 -61.5t-22 -53.5t-41.5 -58
t-48.5 -55t-63 -65l-61 55q87 81 131 164q-33 -4 -55.5 19t-22.5 59q0 39 31 71t72 32zM524 113q161 0 289 113.5t170 285.5l8 39q8 44 8 100q0 120 -90 207.5t-213 87.5q-117 0 -218 -73t-160.5 -197t-59.5 -268q0 -120 78.5 -207.5t187.5 -87.5z" />
    <glyph glyph-name="Dcroat" unicode="&#x110;" horiz-adv-x="1595" 
d="M879 1407q280 0 457 -156.5t177 -402.5q0 -170 -74 -326.5t-197.5 -271t-293 -182.5t-352.5 -68h-481l133 641h-137l30 152h140l127 614h471zM614 145q196 0 366.5 94.5t271 254.5t100.5 344q0 186 -138.5 305t-355.5 119h-319l-99 -469h416l-33 -152h-413l-105 -496h309
z" />
    <glyph glyph-name="dcroat" unicode="&#x111;" horiz-adv-x="1345" 
d="M1430 1300l-23 -102h-129l-248 -1198h-153l41 197q-81 -103 -191 -162.5t-231 -59.5q-161 0 -279.5 125t-118.5 297q0 137 50.5 264t135 219.5t200.5 147.5t241 55q106 0 195 -69t131 -178l73 362h-352l23 102h352l27 132h153l-27 -132h130zM524 113q161 0 289 113.5
t170 285.5l8 39q8 44 8 100q0 120 -90 207.5t-213 87.5q-117 0 -218 -73t-160.5 -197t-59.5 -268q0 -120 78.5 -207.5t187.5 -87.5z" />
    <glyph glyph-name="Emacron" unicode="&#x112;" horiz-adv-x="1284" 
d="M1223 1677l-23 -112h-635l23 112h635zM1323 1255h-850l-92 -462h762l-31 -152h-766l-98 -489h846l-33 -152h-1010l293 1407h1010z" />
    <glyph glyph-name="emacron" unicode="&#x113;" horiz-adv-x="1163" 
d="M1106 1329l-23 -112h-634l22 112h635zM614 471h-372q-2 -14 -2 -41q0 -145 81.5 -231t221.5 -86q96 0 197 38t161 93l82 -109q-81 -72 -217 -116t-250 -44q-188 0 -308 123t-120 320q0 129 55 252t144 213t208 145t242 55q101 0 186.5 -34.5t139 -102t53.5 -155.5
q0 -142 -135 -231t-367 -89zM725 946q-156 0 -277.5 -96.5t-175.5 -241.5h371q154 0 238 45.5t84 128.5q0 75 -67.5 119.5t-172.5 44.5z" />
    <glyph glyph-name="Edotaccent" unicode="&#x116;" horiz-adv-x="1284" 
d="M895 1571q-39 0 -62.5 25t-23.5 61q0 39 30.5 70.5t71.5 31.5q38 0 62 -25t24 -61q0 -39 -31.5 -70.5t-70.5 -31.5zM1323 1255h-850l-92 -462h762l-31 -152h-766l-98 -489h846l-33 -152h-1010l293 1407h1010z" />
    <glyph glyph-name="edotaccent" unicode="&#x117;" horiz-adv-x="1163" 
d="M778 1223q-39 0 -62.5 25t-23.5 61q0 39 31 70.5t72 31.5q38 0 62 -25t24 -61q0 -39 -32 -70.5t-71 -31.5zM614 471h-372q-2 -14 -2 -41q0 -145 81.5 -231t221.5 -86q96 0 197 38t161 93l82 -109q-81 -72 -217 -116t-250 -44q-188 0 -308 123t-120 320q0 129 55 252
t144 213t208 145t242 55q101 0 186.5 -34.5t139 -102t53.5 -155.5q0 -142 -135 -231t-367 -89zM725 946q-156 0 -277.5 -96.5t-175.5 -241.5h371q154 0 238 45.5t84 128.5q0 75 -67.5 119.5t-172.5 44.5z" />
    <glyph glyph-name="Eogonek" unicode="&#x118;" horiz-adv-x="1284" 
d="M1323 1255h-850l-92 -462h762l-31 -152h-766l-98 -489h846l-33 -152h-412q-67 0 -110 -44.5t-43 -113.5q0 -35 23.5 -55t64.5 -20q67 0 110 43l54 -109q-78 -55 -177 -55q-88 0 -140 46.5t-52 127.5q0 109 78 180h-406l293 1407h1010z" />
    <glyph glyph-name="eogonek" unicode="&#x119;" horiz-adv-x="1163" 
d="M614 471h-372q-2 -14 -2 -41q0 -145 81.5 -231t221.5 -86q96 0 197 38t161 93l82 -109q-80 -70 -213.5 -114t-247.5 -46q-67 0 -110 -44t-43 -113q0 -35 23.5 -55.5t64.5 -20.5q67 0 110 43l54 -109q-78 -55 -177 -55q-88 0 -140 46.5t-52 127.5q0 65 30 119.5t80 85.5
q-126 43 -200 154t-74 264q0 129 55 252t144 213t208 145t242 55q101 0 186.5 -34.5t139 -102t53.5 -155.5q0 -142 -135 -231t-367 -89zM725 946q-156 0 -277.5 -96.5t-175.5 -241.5h371q154 0 238 45.5t84 128.5q0 75 -67.5 119.5t-172.5 44.5z" />
    <glyph glyph-name="Ecaron" unicode="&#x11a;" horiz-adv-x="1284" 
d="M948 1528h-143l-146 280h113l121 -176l201 176h123zM1323 1255h-850l-92 -462h762l-31 -152h-766l-98 -489h846l-33 -152h-1010l293 1407h1010z" />
    <glyph glyph-name="ecaron" unicode="&#x11b;" horiz-adv-x="1163" 
d="M831 1180h-143l-145 280h112l121 -176l201 176h123zM614 471h-372q-2 -14 -2 -41q0 -145 81.5 -231t221.5 -86q96 0 197 38t161 93l82 -109q-81 -72 -217 -116t-250 -44q-188 0 -308 123t-120 320q0 129 55 252t144 213t208 145t242 55q101 0 186.5 -34.5t139 -102
t53.5 -155.5q0 -142 -135 -231t-367 -89zM725 946q-156 0 -277.5 -96.5t-175.5 -241.5h371q154 0 238 45.5t84 128.5q0 75 -67.5 119.5t-172.5 44.5z" />
    <glyph glyph-name="Gbreve" unicode="&#x11e;" horiz-adv-x="1511" 
d="M1047 1554q-173 0 -281 127l108 88q31 -39 79.5 -60t99.5 -21q115 0 227 90l84 -105q-142 -119 -317 -119zM807 586l33 151h563l-115 -551q-113 -92 -272 -151.5t-295 -59.5q-157 0 -292.5 81t-215.5 219t-80 298q0 171 72 330t192 274.5t284.5 185t342.5 69.5
q132 0 264 -61.5t209 -158.5l-125 -102q-57 77 -163 125.5t-216 48.5q-140 0 -269.5 -57.5t-223.5 -153.5t-150.5 -227t-56.5 -273q0 -120 62 -224t167.5 -165t227.5 -61q91 0 198 38.5t197 102.5l65 322h-403z" />
    <glyph glyph-name="gbreve" unicode="&#x11f;" horiz-adv-x="1269" 
d="M768 1206q-173 0 -281 127l109 88q32 -39 79.5 -60.5t98.5 -21.5q114 0 227 91l84 -105q-142 -119 -317 -119zM1057 1059h153l-198 -953q-44 -209 -213 -333.5t-393 -124.5q-127 0 -234 40.5t-170 104.5l84 113q102 -121 315 -121q179 0 304 89.5t157 244.5l33 155
q-171 -196 -420 -196q-183 0 -292 108.5t-109 292.5q0 116 46.5 226t124.5 193.5t188 134t231 50.5q133 0 222.5 -58.5t131.5 -158.5zM514 215q155 0 277.5 101t162.5 247l11 49q4 40 4 60q0 127 -75 200.5t-204 73.5q-121 0 -226.5 -63.5t-166.5 -168.5t-61 -222
q0 -128 74 -202.5t204 -74.5z" />
    <glyph glyph-name="Gcommaaccent" unicode="&#x122;" horiz-adv-x="1511" 
d="M807 586l33 151h563l-115 -551q-113 -92 -272 -151.5t-295 -59.5q-157 0 -292.5 81t-215.5 219t-80 298q0 171 72 330t192 274.5t284.5 185t342.5 69.5q132 0 264 -61.5t209 -158.5l-125 -102q-57 77 -163 125.5t-216 48.5q-140 0 -269.5 -57.5t-223.5 -153.5
t-150.5 -227t-56.5 -273q0 -120 62 -224t167.5 -165t227.5 -61q91 0 198 38.5t197 102.5l65 322h-403zM674 -168q43 0 66.5 -29t23.5 -77q0 -38 -11 -72t-41 -74t-54.5 -66.5t-77.5 -80.5l-62 55q87 81 131 164q-33 -4 -55.5 19t-22.5 59q0 39 31 70.5t72 31.5z" />
    <glyph glyph-name="gcommaaccent" unicode="&#x123;" horiz-adv-x="1228" 
d="M795 1225q-43 0 -66.5 29t-23.5 77q0 38 11 72t41 74t54.5 66.5t77.5 80.5l61 -55q-87 -81 -131 -164q33 4 55.5 -19t22.5 -59q0 -39 -30.5 -70.5t-71.5 -31.5zM1057 1059h153l-198 -953q-44 -209 -213 -333.5t-393 -124.5q-127 0 -234 40.5t-170 104.5l84 113
q102 -121 315 -121q179 0 304 89.5t157 244.5l33 155q-171 -196 -420 -196q-183 0 -292 108.5t-109 292.5q0 116 46.5 226t124.5 193.5t188 134t231 50.5q133 0 222.5 -58.5t131.5 -158.5zM514 215q155 0 277.5 101t162.5 247l11 49q4 40 4 60q0 127 -75 200.5t-204 73.5
q-121 0 -226.5 -63.5t-166.5 -168.5t-61 -222q0 -128 74 -202.5t204 -74.5z" />
    <glyph glyph-name="Imacron" unicode="&#x12a;" horiz-adv-x="483" 
d="M139 1565l23 112h635l-23 -112h-635zM51 0l293 1407h160l-293 -1407h-160z" />
    <glyph glyph-name="imacron" unicode="&#x12b;" horiz-adv-x="460" 
d="M57 1217l23 112h635l-23 -112h-635zM43 0l221 1059h154l-221 -1059h-154z" />
    <glyph glyph-name="Iogonek" unicode="&#x12e;" horiz-adv-x="483" 
d="M152 -233q67 0 110 43l53 -109q-78 -55 -176 -55q-88 0 -140 46.5t-52 127.5q0 64 29.5 118.5t78.5 86.5l289 1382h160l-293 -1405l6 -2q-67 0 -110.5 -44.5t-43.5 -113.5q0 -35 24 -55t65 -20z" />
    <glyph glyph-name="iogonek" unicode="&#x12f;" horiz-adv-x="460" 
d="M403 1411q38 0 62 -25t24 -61q0 -39 -31.5 -70.5t-70.5 -31.5t-62.5 25t-23.5 61q0 39 30.5 70.5t71.5 31.5zM127 0q-67 0 -110.5 -44.5t-43.5 -113.5q0 -35 23.5 -55t64.5 -20q68 0 111 43l53 -109q-78 -55 -176 -55q-88 0 -140 46.5t-52 127.5q0 75 40 135.5t103 85.5
l49 -16l215 1034h154l-221 -1059h-70z" />
    <glyph glyph-name="Idotaccent" unicode="&#x130;" horiz-adv-x="483" 
d="M469 1571q-39 0 -62.5 25t-23.5 61q0 39 30.5 70.5t71.5 31.5q38 0 62 -25t24 -61q0 -39 -31.5 -70.5t-70.5 -31.5zM51 0l293 1407h160l-293 -1407h-160z" />
    <glyph glyph-name="dotlessi" unicode="&#x131;" horiz-adv-x="460" 
d="M43 0l221 1059h154l-221 -1059h-154z" />
    <glyph glyph-name="Kcommaaccent" unicode="&#x136;" horiz-adv-x="1349" 
d="M78 0l293 1407h159l-163 -778l874 778h215l-727 -643l469 -764h-201l-397 655l-272 -233l-90 -422h-160zM461 -567l-62 55q87 81 131 164q-33 -4 -55 19t-22 59q0 39 30.5 70.5t71.5 31.5q43 0 66.5 -29t23.5 -77q0 -38 -11 -72t-41 -74t-54.5 -66.5t-77.5 -80.5z" />
    <glyph glyph-name="kcommaaccent" unicode="&#x137;" horiz-adv-x="1116" 
d="M1198 1059l-580 -486l328 -573h-186l-268 469l-236 -193l-57 -276h-154l297 1432h154l-199 -959l700 586h201zM434 -168q43 0 66.5 -29t23.5 -77q0 -38 -11 -72t-41 -74t-54.5 -66.5t-77.5 -80.5l-61 55q87 81 131 164q-33 -4 -55.5 19t-22.5 59q0 39 30.5 70.5
t71.5 31.5z" />
    <glyph glyph-name="Lacute" unicode="&#x139;" horiz-adv-x="1136" 
d="M836 1786l-344 -258h-123l309 295zM223 152h766l-33 -152h-927l293 1407h159z" />
    <glyph glyph-name="lacute" unicode="&#x13a;" horiz-adv-x="464" 
d="M358 1552l310 295l157 -37l-344 -258h-123zM47 0l297 1432h154l-297 -1432h-154z" />
    <glyph glyph-name="Lcaron" unicode="&#x13d;" horiz-adv-x="1136" 
d="M813 1325q0 -38 -11 -72t-41 -74t-54.5 -66.5t-77.5 -80.5l-62 55q87 81 131 164q-33 -4 -55 19t-22 59q0 39 30.5 71t71.5 32q43 0 66.5 -29t23.5 -78zM223 152h766l-33 -152h-927l293 1407h159z" />
    <glyph glyph-name="lcaron" unicode="&#x13e;" horiz-adv-x="464" 
d="M47 0l297 1432h154l-297 -1432h-154zM639 1032l-61 55q87 81 131 164q-33 -4 -55.5 19t-22.5 59q0 39 30.5 71t71.5 32q43 0 66.5 -29t23.5 -78q0 -38 -11 -72t-41 -74t-54.5 -66.5t-77.5 -80.5z" />
    <glyph glyph-name="Lslash" unicode="&#x141;" horiz-adv-x="1243" 
d="M330 152h766l-33 -152h-928l117 565l-182 -86l28 154l187 86l143 688h160l-125 -604l313 145l-28 -153l-316 -148z" />
    <glyph glyph-name="lslash" unicode="&#x142;" horiz-adv-x="632" 
d="M627 879l-29 -154l-176 -82l-133 -643h-154l117 563l-182 -84l28 154l187 86l147 713h154l-131 -633z" />
    <glyph glyph-name="Nacute" unicode="&#x143;" horiz-adv-x="1576" 
d="M801 1528l309 295l158 -37l-344 -258h-123zM82 0l293 1407h157l635 -1145l240 1145h160l-293 -1407h-156l-635 1145l-241 -1145h-160z" />
    <glyph glyph-name="nacute" unicode="&#x144;" 
d="M1020 1438l-344 -258h-123l309 295zM762 1083q152 0 242 -87.5t90 -229.5q0 -15 -1 -30t-3.5 -32t-8 -47.5t-12 -63t-19.5 -93t-26 -122t-35.5 -167t-44.5 -211.5h-153q20 94 39.5 188.5t31.5 152.5t24.5 116.5t19 90t13 64.5t9 48.5t5 32t3 26t0.5 20.5q0 96 -54 151.5
t-147 55.5q-134 0 -249.5 -80t-143.5 -188l-141 -678h-154l221 1059h154l-33 -162q62 84 164 135t209 51z" />
    <glyph glyph-name="Ncommaaccent" unicode="&#x145;" horiz-adv-x="1576" 
d="M82 0l293 1407h157l635 -1145l240 1145h160l-293 -1407h-156l-635 1145l-241 -1145h-160zM539 -567l-62 55q87 81 131 164q-33 -4 -55.5 19t-22.5 59q0 39 31 70.5t72 31.5q43 0 66.5 -29t23.5 -77q0 -38 -11 -72t-41 -74t-54.5 -66.5t-77.5 -80.5z" />
    <glyph glyph-name="ncommaaccent" unicode="&#x146;" 
d="M762 1083q152 0 242 -87.5t90 -229.5q0 -15 -1 -30t-3.5 -32t-8 -47.5t-12 -63t-19.5 -93t-26 -122t-35.5 -167t-44.5 -211.5h-153q20 94 39.5 188.5t31.5 152.5t24.5 116.5t19 90t13 64.5t9 48.5t5 32t3 26t0.5 20.5q0 96 -54 151.5t-147 55.5q-134 0 -249.5 -80
t-143.5 -188l-141 -678h-154l221 1059h154l-33 -162q62 84 164 135t209 51zM455 -168q43 0 66.5 -29t23.5 -77q0 -31 -10 -61.5t-22 -53.5t-41.5 -58t-48.5 -55t-63 -65l-61 55q87 81 131 164q-33 -4 -55.5 19t-22.5 59q0 39 31 70.5t72 31.5z" />
    <glyph glyph-name="Ncaron" unicode="&#x147;" horiz-adv-x="1576" 
d="M924 1528l-146 280h113l121 -176l200 176h123l-268 -280h-143zM82 0l293 1407h157l635 -1145l240 1145h160l-293 -1407h-156l-635 1145l-241 -1145h-160z" />
    <glyph glyph-name="ncaron" unicode="&#x148;" 
d="M819 1180h-143l-146 280h113l121 -176l201 176h122zM762 1083q152 0 242 -87.5t90 -229.5q0 -15 -1 -30t-3.5 -32t-8 -47.5t-12 -63t-19.5 -93t-26 -122t-35.5 -167t-44.5 -211.5h-153q20 94 39.5 188.5t31.5 152.5t24.5 116.5t19 90t13 64.5t9 48.5t5 32t3 26t0.5 20.5
q0 96 -54 151.5t-147 55.5q-134 0 -249.5 -80t-143.5 -188l-141 -678h-154l221 1059h154l-33 -162q62 84 164 135t209 51z" />
    <glyph glyph-name="Omacron" unicode="&#x14c;" horiz-adv-x="1654" 
d="M725 1565l23 112h634l-22 -112h-635zM715 -25q-156 0 -290.5 80t-214 217t-79.5 295q0 173 71 332.5t190.5 276.5t283 186.5t340.5 69.5q125 0 233.5 -46t184.5 -124.5t119.5 -188t43.5 -233.5q0 -172 -71.5 -331.5t-190 -276.5t-282 -187t-338.5 -70zM745 123
q139 0 268.5 60t221.5 157.5t147.5 227.5t55.5 266q0 126 -56.5 228.5t-160.5 162t-234 59.5q-139 0 -267 -56.5t-221.5 -151.5t-149.5 -225t-56 -271q0 -186 134 -321.5t318 -135.5z" />
    <glyph glyph-name="omacron" unicode="&#x14d;" horiz-adv-x="1294" 
d="M465 1217l22 112h635l-22 -112h-635zM528 -25q-178 0 -308 134t-130 317q0 175 91 326.5t245 241t332 89.5q181 0 313.5 -133.5t132.5 -316.5q0 -131 -54.5 -252.5t-145.5 -210.5t-216 -142t-260 -53zM557 113q130 0 242.5 69t178.5 186t66 253q0 132 -93 228.5
t-222 96.5q-128 0 -238.5 -69.5t-175.5 -187t-65 -253.5q0 -132 91 -227.5t216 -95.5z" />
    <glyph glyph-name="Ohungarumlaut" unicode="&#x150;" horiz-adv-x="1654" 
d="M829 1528l310 295l157 -37l-344 -258h-123zM1239 1528l309 291l158 -37l-344 -254h-123zM715 -25q-156 0 -290.5 80t-214 217t-79.5 295q0 173 71 332.5t190.5 276.5t283 186.5t340.5 69.5q125 0 233.5 -46t184.5 -124.5t119.5 -188t43.5 -233.5q0 -172 -71.5 -331.5
t-190 -276.5t-282 -187t-338.5 -70zM745 123q139 0 268.5 60t221.5 157.5t147.5 227.5t55.5 266q0 126 -56.5 228.5t-160.5 162t-234 59.5q-139 0 -267 -56.5t-221.5 -151.5t-149.5 -225t-56 -271q0 -186 134 -321.5t318 -135.5z" />
    <glyph glyph-name="ohungarumlaut" unicode="&#x151;" horiz-adv-x="1294" 
d="M510 1180l309 295l158 -37l-344 -258h-123zM920 1180l309 290l157 -36l-344 -254h-122zM528 -25q-178 0 -308 134t-130 317q0 175 91 326.5t245 241t332 89.5q181 0 313.5 -133.5t132.5 -316.5q0 -131 -54.5 -252.5t-145.5 -210.5t-216 -142t-260 -53zM557 113
q130 0 242.5 69t178.5 186t66 253q0 132 -93 228.5t-222 96.5q-128 0 -238.5 -69.5t-175.5 -187t-65 -253.5q0 -132 91 -227.5t216 -95.5z" />
    <glyph glyph-name="OE" unicode="&#x152;" horiz-adv-x="2113" 
d="M2152 1255h-849l-93 -462h762l-30 -152h-766l-99 -489h846l-33 -152h-1167q-258 0 -427 155.5t-169 399.5q0 162 76.5 319.5t199 273.5t283 187.5t320.5 71.5h1177zM743 147h168l232 1113h-158q-128 0 -256 -61t-224.5 -158t-157 -225.5t-60.5 -256.5q0 -184 128 -298
t328 -114z" />
    <glyph glyph-name="oe" unicode="&#x153;" horiz-adv-x="2105" 
d="M1556 471h-372q-2 -14 -2 -41q0 -145 81.5 -231t221.5 -86q96 0 197 38t161 93l82 -109q-81 -72 -217 -116t-250 -44q-139 0 -244 70t-151 191q-96 -121 -236.5 -191t-298.5 -70q-178 0 -308 134t-130 317q0 175 91 326.5t245 241t332 89.5q133 0 244.5 -76t164.5 -198
q94 126 230 200t282 74q101 0 186.5 -34.5t139 -102t53.5 -155.5q0 -142 -135 -231t-367 -89zM557 113q130 0 242.5 69t178.5 186t66 253q0 132 -93 228.5t-222 96.5q-128 0 -238.5 -69.5t-175.5 -187t-65 -253.5q0 -132 91 -227.5t216 -95.5zM1667 946q-156 0 -277.5 -96.5
t-175.5 -241.5h371q154 0 238 45.5t84 128.5q0 75 -67.5 119.5t-172.5 44.5z" />
    <glyph glyph-name="Racute" unicode="&#x154;" horiz-adv-x="1331" 
d="M1153 1786l-344 -258h-123l309 295zM1346 1024q0 -180 -139.5 -322t-348.5 -182l316 -520h-177l-309 506h-371l-106 -506h-160l293 1407h563q192 0 315.5 -107.5t123.5 -275.5zM752 657q178 0 307 108t129 257q0 103 -88 168t-226 65h-401l-125 -598h404z" />
    <glyph glyph-name="racute" unicode="&#x155;" horiz-adv-x="796" 
d="M872 1438l-344 -258h-122l309 295zM391 856q70 106 189 166.5t264 60.5l-19 -137q-180 0 -318.5 -101.5t-170.5 -256.5l-123 -588h-154l222 1059h153z" />
    <glyph glyph-name="Rcommaaccent" unicode="&#x156;" horiz-adv-x="1331" 
d="M1346 1024q0 -180 -139.5 -322t-348.5 -182l316 -520h-177l-309 506h-371l-106 -506h-160l293 1407h563q192 0 315.5 -107.5t123.5 -275.5zM752 657q178 0 307 108t129 257q0 103 -88 168t-226 65h-401l-125 -598h404zM492 -168q43 0 66.5 -29t23.5 -77q0 -31 -10 -61.5
t-22 -53.5t-41.5 -58t-48.5 -55t-63 -65l-61 55q87 81 131 164q-33 -4 -55.5 19t-22.5 59q0 39 31 70.5t72 31.5z" />
    <glyph glyph-name="rcommaaccent" unicode="&#x157;" horiz-adv-x="796" 
d="M391 856q70 106 189 166.5t264 60.5l-19 -137q-180 0 -318.5 -101.5t-170.5 -256.5l-123 -588h-154l222 1059h153zM168 -168q43 0 66.5 -29t23.5 -77q0 -38 -11 -72t-41 -74t-54.5 -66.5t-77.5 -80.5l-62 55q87 81 131 164q-33 -4 -55 19t-22 59q0 39 30.5 70.5
t71.5 31.5z" />
    <glyph glyph-name="Rcaron" unicode="&#x158;" horiz-adv-x="1331" 
d="M952 1528h-143l-145 280h112l121 -176l201 176h123zM1346 1024q0 -180 -139.5 -322t-348.5 -182l316 -520h-177l-309 506h-371l-106 -506h-160l293 1407h563q192 0 315.5 -107.5t123.5 -275.5zM752 657q178 0 307 108t129 257q0 103 -88 168t-226 65h-401l-125 -598h404z
" />
    <glyph glyph-name="rcaron" unicode="&#x159;" horiz-adv-x="796" 
d="M672 1180h-144l-145 280h113l120 -176l201 176h123zM391 856q70 106 189 166.5t264 60.5l-19 -137q-180 0 -318.5 -101.5t-170.5 -256.5l-123 -588h-154l222 1059h153z" />
    <glyph glyph-name="Sacute" unicode="&#x15a;" horiz-adv-x="1257" 
d="M618 1528l310 295l157 -37l-344 -258h-123zM545 -23q-146 0 -290 64t-228 164l118 117q69 -88 184 -143.5t228 -55.5q175 0 286 84.5t111 216.5q0 71 -73.5 120.5t-243.5 92.5q-214 51 -305.5 124.5t-91.5 194.5q0 210 154 344t397 134q121 0 248.5 -57t209.5 -148
l-116 -117q-63 77 -164 126.5t-195 49.5q-163 0 -267 -82t-104 -211q0 -67 74.5 -115t247.5 -92q212 -51 303.5 -128t91.5 -205q0 -210 -161 -344t-414 -134z" />
    <glyph glyph-name="sacute" unicode="&#x15b;" horiz-adv-x="1013" 
d="M463 1180l309 295l158 -37l-344 -258h-123zM424 -25q-114 0 -223 42.5t-191 119.5l96 105q70 -61 156 -95t168 -34q116 0 200.5 60.5t84.5 143.5q0 46 -51 83t-168 75q-164 47 -236 105.5t-72 144.5q0 158 120 258t308 100q93 0 189.5 -32t173.5 -90l-90 -111
q-61 45 -135 70.5t-144 25.5q-117 0 -191.5 -53.5t-74.5 -136.5q0 -37 53 -72.5t176 -81.5q160 -49 228.5 -109t68.5 -149q0 -99 -60.5 -184t-163.5 -135t-222 -50z" />
    <glyph glyph-name="Scedilla" unicode="&#x15e;" horiz-adv-x="1257" 
d="M774 1288q-163 0 -267 -82t-104 -211q0 -67 74.5 -115t247.5 -92q212 -51 303.5 -128t91.5 -205q0 -201 -149 -333.5t-387 -144.5l-45 -69h10q55 0 90 -32t35 -83q0 -82 -66.5 -134t-158.5 -52q-109 0 -177 61l50 78q43 -43 116 -43q63 0 98 23.5t35 64.5q0 26 -16 42.5
t-41 16.5q-43 0 -80 -26l-31 39l74 119q-132 13 -254 74t-196 149l118 117q69 -88 184 -143.5t228 -55.5q175 0 286 84.5t111 216.5q0 71 -73.5 120.5t-243.5 92.5q-214 51 -305.5 124.5t-91.5 194.5q0 210 154 344t397 134q121 0 248.5 -57t209.5 -148l-116 -117
q-63 77 -164 126.5t-195 49.5z" />
    <glyph glyph-name="scedilla" unicode="&#x15f;" horiz-adv-x="1013" 
d="M610 946q-117 0 -191.5 -53.5t-74.5 -136.5q0 -37 53 -72.5t176 -81.5q160 -49 228.5 -109t68.5 -149q0 -141 -118.5 -248t-286.5 -119l-45 -69h10q55 0 90 -32t35 -83q0 -82 -66.5 -134t-158.5 -52q-108 0 -176 61l49 78q43 -43 116 -43q63 0 98.5 23.5t35.5 64.5
q0 26 -16.5 42.5t-41.5 16.5q-43 0 -80 -26l-30 39l71 117q-205 22 -346 157l96 105q70 -61 156 -95t168 -34q116 0 200.5 60.5t84.5 143.5q0 46 -51 83t-168 75q-164 47 -236 105.5t-72 144.5q0 158 120 258t308 100q93 0 189.5 -32t173.5 -90l-90 -111q-61 45 -135 70.5
t-144 25.5z" />
    <glyph glyph-name="Scaron" unicode="&#x160;" horiz-adv-x="1257" 
d="M741 1528l-145 280h113l120 -176l201 176h123l-268 -280h-144zM545 -23q-146 0 -290 64t-228 164l118 117q69 -88 184 -143.5t228 -55.5q175 0 286 84.5t111 216.5q0 71 -73.5 120.5t-243.5 92.5q-214 51 -305.5 124.5t-91.5 194.5q0 210 154 344t397 134
q121 0 248.5 -57t209.5 -148l-116 -117q-63 77 -164 126.5t-195 49.5q-163 0 -267 -82t-104 -211q0 -67 74.5 -115t247.5 -92q212 -51 303.5 -128t91.5 -205q0 -210 -161 -344t-414 -134z" />
    <glyph glyph-name="scaron" unicode="&#x161;" horiz-adv-x="1013" 
d="M586 1180l-146 280h113l121 -176l200 176h123l-268 -280h-143zM424 -25q-114 0 -223 42.5t-191 119.5l96 105q70 -61 156 -95t168 -34q116 0 200.5 60.5t84.5 143.5q0 46 -51 83t-168 75q-164 47 -236 105.5t-72 144.5q0 158 120 258t308 100q93 0 189.5 -32t173.5 -90
l-90 -111q-61 45 -135 70.5t-144 25.5q-117 0 -191.5 -53.5t-74.5 -136.5q0 -37 53 -72.5t176 -81.5q160 -49 228.5 -109t68.5 -149q0 -99 -60.5 -184t-163.5 -135t-222 -50z" />
    <glyph glyph-name="uni0162" unicode="&#x162;" horiz-adv-x="1290" 
d="M274 1407h1106l-30 -152h-473l-263 -1255h-26l-60 -92h11q55 0 90 -32t35 -83q0 -82 -66.5 -134t-159.5 -52q-108 0 -176 61l49 78q43 -43 117 -43q63 0 98 23.5t35 64.5q0 26 -16 42.5t-41 16.5q-43 0 -80 -26l-31 39l84 137h-22l262 1255h-473z" />
    <glyph glyph-name="uni0163" unicode="&#x163;" horiz-adv-x="763" 
d="M737 922h-260q-145 -696 -145 -717q0 -42 22 -67t58 -25q38 0 72.5 13.5t54.5 33.5l61 -121q-70 -45 -141 -57l-47 -74h10q55 0 90 -32t35 -83q0 -82 -66.5 -134t-158.5 -52q-109 0 -177 61l50 78q43 -43 116 -43q63 0 98 23.5t35 64.5q0 26 -16 42.5t-41 16.5
q-43 0 -80 -26l-31 39l72 117q-79 13 -124.5 69.5t-45.5 138.5q0 42 93 480q32 156 53 254h-166l28 137h166l62 291h153l-61 -291h260z" />
    <glyph glyph-name="Tcaron" unicode="&#x164;" horiz-adv-x="1290" 
d="M782 1528l-145 280h113l120 -176l201 176h123l-268 -280h-144zM455 0l262 1255h-473l30 152h1106l-30 -152h-473l-263 -1255h-159z" />
    <glyph glyph-name="tcaron" unicode="&#x165;" horiz-adv-x="763" 
d="M1085 1432q43 0 67 -29.5t24 -77.5q0 -31 -10 -61.5t-22 -53.5t-41.5 -58t-48.5 -55t-63 -65l-61 55q87 81 131 164q-33 -4 -55.5 19t-22.5 59q0 39 30.5 71t71.5 32zM567 1350l-61 -291h260l-29 -137h-260q-145 -696 -145 -717q0 -42 22 -67t58 -25q38 0 72.5 13.5
t54.5 33.5l61 -121q-98 -64 -205 -64q-99 0 -158 59t-59 154q0 42 93 480q32 156 53 254h-166l28 137h166l62 291h153z" />
    <glyph glyph-name="Umacron" unicode="&#x16a;" horiz-adv-x="1527" 
d="M662 1565l22 112h635l-23 -112h-634zM651 -25q-128 0 -228.5 45.5t-160.5 127t-81.5 194.5t7.5 248l170 817h160l-172 -829q-41 -201 52.5 -329t281.5 -128q189 0 336 131.5t188 337.5l170 817h160l-172 -829q-56 -265 -255 -434t-456 -169z" />
    <glyph glyph-name="umacron" unicode="&#x16b;" 
d="M1096 1329l-23 -112h-635l23 112h635zM1012 1059h153l-221 -1059h-153l32 162q-62 -84 -163.5 -135.5t-208.5 -51.5q-152 0 -242 87.5t-90 230.5q0 14 0.5 25.5t3 30t5.5 35.5t9.5 51.5t13.5 67t19.5 93t25 118.5t32.5 154t40 191h154q-20 -96 -39.5 -189t-32 -152
t-24.5 -117t-19 -90.5t-13.5 -64.5t-9 -48t-5 -32.5t-3 -26t-0.5 -20.5q0 -95 53.5 -150.5t147.5 -55.5q134 0 249.5 80t143.5 188z" />
    <glyph glyph-name="Uring" unicode="&#x16e;" horiz-adv-x="1527" 
d="M977 1554q-76 0 -124 48.5t-48 121.5q0 100 80 176t180 76q75 0 122.5 -47t47.5 -119q0 -102 -79.5 -179t-178.5 -77zM995 1645q56 0 102 44.5t46 100.5q0 42 -27 69t-69 27q-56 0 -103 -43.5t-47 -99.5q0 -42 28 -70t70 -28zM651 -25q-128 0 -228.5 45.5t-160.5 127
t-81.5 194.5t7.5 248l170 817h160l-172 -829q-41 -201 52.5 -329t281.5 -128q189 0 336 131.5t188 337.5l170 817h160l-172 -829q-56 -265 -255 -434t-456 -169z" />
    <glyph glyph-name="uring" unicode="&#x16f;" 
d="M754 1206q-76 0 -124 48.5t-48 121.5q0 100 80 176t180 76q76 0 123 -47t47 -119q0 -102 -79.5 -179t-178.5 -77zM823 1538q-56 0 -102.5 -43.5t-46.5 -99.5q0 -42 28 -70.5t70 -28.5q56 0 102 45t46 101q0 42 -27 69t-70 27zM1012 1059h153l-221 -1059h-153l32 162
q-62 -84 -163.5 -135.5t-208.5 -51.5q-152 0 -242 87.5t-90 230.5q0 14 0.5 25.5t3 30t5.5 35.5t9.5 51.5t13.5 67t19.5 93t25 118.5t32.5 154t40 191h154q-20 -96 -39.5 -189t-32 -152t-24.5 -117t-19 -90.5t-13.5 -64.5t-9 -48t-5 -32.5t-3 -26t-0.5 -20.5
q0 -95 53.5 -150.5t147.5 -55.5q134 0 249.5 80t143.5 188z" />
    <glyph glyph-name="Uhungarumlaut" unicode="&#x170;" horiz-adv-x="1527" 
d="M559 1528l309 295l158 -37l-344 -258h-123zM969 1528l309 291l158 -37l-344 -254h-123zM651 -25q-128 0 -228.5 45.5t-160.5 127t-81.5 194.5t7.5 248l170 817h160l-172 -829q-41 -201 52.5 -329t281.5 -128q189 0 336 131.5t188 337.5l170 817h160l-172 -829
q-56 -265 -255 -434t-456 -169z" />
    <glyph glyph-name="uhungarumlaut" unicode="&#x171;" 
d="M803 1438l-344 -258h-123l309 295zM868 1180h-123l310 290l157 -36zM870 381l142 678h153l-221 -1059h-153l32 162q-62 -84 -163.5 -135.5t-208.5 -51.5q-152 0 -242 87.5t-90 230.5q0 14 0.5 25.5t3 30t5.5 35.5t9.5 51.5t13.5 67t19.5 93t25 118.5t32.5 154t40 191h154
q-20 -96 -39.5 -189t-32 -152t-24.5 -117t-19 -90.5t-13.5 -64.5t-9 -48t-5 -32.5t-3 -26t-0.5 -20.5q0 -95 53.5 -150.5t147.5 -55.5q134 0 249.5 80t143.5 188z" />
    <glyph glyph-name="Uogonek" unicode="&#x172;" horiz-adv-x="1527" 
d="M1374 1407h160l-172 -829q-56 -265 -255 -434t-456 -169q-29 0 -43 2q-69 -43 -69 -135q0 -35 23.5 -55t64.5 -20q67 0 110 43l54 -109q-78 -55 -177 -55q-88 0 -140 46.5t-52 127.5q0 105 74 176q-186 50 -269.5 210t-38.5 384l170 817h160l-172 -829
q-41 -201 52.5 -329t281.5 -128q189 0 336 131.5t188 337.5z" />
    <glyph glyph-name="uogonek" unicode="&#x173;" 
d="M879 -233q67 0 110 43l53 -109q-78 -55 -176 -55q-88 0 -140 46.5t-52 127.5q0 69 34 126t89 85l26 131q-62 -84 -163.5 -135.5t-208.5 -51.5q-152 0 -242 87.5t-90 230.5q0 14 0.5 25.5t3 30t5.5 35.5t9.5 51.5t13.5 67t19.5 93t25 118.5t32.5 154t40 191h154
q-20 -96 -39.5 -189t-32 -152t-24.5 -117t-19 -90.5t-13.5 -64.5t-9 -48t-5 -32.5t-3 -26t-0.5 -20.5q0 -95 53.5 -150.5t147.5 -55.5q134 0 249.5 80t143.5 188l142 678h153l-221 -1059q-67 0 -110 -44.5t-43 -113.5q0 -35 23.5 -55t64.5 -20z" />
    <glyph glyph-name="Wcircumflex" unicode="&#x174;" horiz-adv-x="2213" 
d="M1034 1528l264 280h144l149 -280h-114l-123 176l-199 -176h-121zM446 0l-188 1407h178l150 -1139l612 1139h178l133 -1139l629 1139h182l-774 -1407h-157l-140 1198l-645 -1198h-158z" />
    <glyph glyph-name="wcircumflex" unicode="&#x175;" horiz-adv-x="1705" 
d="M709 1180l264 280h143l150 -280h-115l-123 176l-199 -176h-120zM315 0l-133 1059h160l86 -854l467 854h133l111 -854l442 854h168l-578 -1059h-145l-102 846l-463 -846h-146z" />
    <glyph glyph-name="Ycircumflex" unicode="&#x176;" horiz-adv-x="1374" 
d="M598 1528l264 280h144l149 -280h-115l-122 176l-199 -176h-121zM492 0l122 573l-395 834h162l330 -696l612 696h197l-738 -834l-123 -573h-167z" />
    <glyph glyph-name="ycircumflex" unicode="&#x177;" horiz-adv-x="1214" 
d="M455 1180l264 280h143l150 -280h-115l-123 176l-199 -176h-120zM135 -369q-94 0 -166 37l54 127q44 -24 112 -24q57 0 99 23t83 77l93 125l-238 1063h166l186 -881l535 881h170l-729 -1184q-81 -131 -169.5 -187.5t-195.5 -56.5z" />
    <glyph glyph-name="Ydieresis" unicode="&#x178;" horiz-adv-x="1374" 
d="M700 1571q-39 0 -62.5 25t-23.5 61q0 39 31 70.5t72 31.5q38 0 62 -25t24 -61q0 -39 -32 -70.5t-71 -31.5zM1094 1571q-39 0 -62.5 25t-23.5 61q0 39 30.5 70.5t71.5 31.5q38 0 62 -25t24 -61q0 -39 -31.5 -70.5t-70.5 -31.5zM492 0l122 573l-395 834h162l330 -696
l612 696h197l-738 -834l-123 -573h-167z" />
    <glyph glyph-name="Zacute" unicode="&#x179;" horiz-adv-x="1310" 
d="M674 1528l309 295l158 -37l-344 -258h-123zM12 0l23 127l1083 1128h-831l30 152h1053l-24 -127l-1084 -1128h856l-33 -152h-1073z" />
    <glyph glyph-name="zacute" unicode="&#x17a;" horiz-adv-x="1054" 
d="M485 1180l310 295l157 -37l-344 -258h-123zM4 0l23 121l788 792h-610l31 146h819l-23 -121l-792 -793h628l-30 -145h-834z" />
    <glyph glyph-name="Zdotaccent" unicode="&#x17b;" horiz-adv-x="1310" 
d="M887 1571q-39 0 -62.5 25t-23.5 61q0 39 30.5 70.5t71.5 31.5q38 0 62 -25t24 -61q0 -39 -31.5 -70.5t-70.5 -31.5zM12 0l23 127l1083 1128h-831l30 152h1053l-24 -127l-1084 -1128h856l-33 -152h-1073z" />
    <glyph glyph-name="zdotaccent" unicode="&#x17c;" horiz-adv-x="1054" 
d="M698 1223q-39 0 -62.5 25t-23.5 61q0 39 31 70.5t72 31.5q38 0 62 -25t24 -61q0 -39 -32 -70.5t-71 -31.5zM4 0l23 121l788 792h-610l31 146h819l-23 -121l-792 -793h628l-30 -145h-834z" />
    <glyph glyph-name="Zcaron" unicode="&#x17d;" horiz-adv-x="1310" 
d="M797 1528l-146 280h113l121 -176l200 176h123l-268 -280h-143zM12 0l23 127l1083 1128h-831l30 152h1053l-24 -127l-1084 -1128h856l-33 -152h-1073z" />
    <glyph glyph-name="zcaron" unicode="&#x17e;" horiz-adv-x="1054" 
d="M608 1180l-145 280h112l121 -176l201 176h123l-268 -280h-144zM4 0l23 121l788 792h-610l31 146h819l-23 -121l-792 -793h628l-30 -145h-834z" />
    <glyph glyph-name="uni0237" unicode="&#x237;" horiz-adv-x="460" 
d="M-125 -365q-90 0 -166 35l41 123q52 -20 121 -20q55 0 99.5 40t56.5 99l237 1147h154l-242 -1159q-25 -118 -108.5 -191.5t-192.5 -73.5z" />
    <glyph glyph-name="circumflex" unicode="&#x2c6;" horiz-adv-x="815" 
d="M264 1180l264 280h144l149 -280h-114l-123 176l-199 -176h-121z" />
    <glyph glyph-name="caron" unicode="&#x2c7;" horiz-adv-x="815" 
d="M469 1180l-145 280h112l121 -176l201 176h123l-269 -280h-143z" />
    <glyph glyph-name="breve" unicode="&#x2d8;" horiz-adv-x="858" 
d="M578 1206q-173 0 -281 127l109 88q32 -39 79.5 -60.5t98.5 -21.5q114 0 227 91l84 -105q-142 -119 -317 -119z" />
    <glyph glyph-name="dotaccent" unicode="&#x2d9;" horiz-adv-x="446" 
d="M379 1223q-39 0 -62.5 25t-23.5 61q0 39 30.5 70.5t71.5 31.5q38 0 62 -25t24 -61q0 -39 -31.5 -70.5t-70.5 -31.5z" />
    <glyph glyph-name="ring" unicode="&#x2da;" horiz-adv-x="679" 
d="M481 1206q-76 0 -124 48.5t-48 121.5q0 100 80 176t180 76q75 0 122.5 -47t47.5 -119q0 -102 -79.5 -179t-178.5 -77zM500 1296q56 0 101.5 44.5t45.5 101.5q0 42 -27 69t-69 27q-56 0 -103 -43.5t-47 -99.5q0 -42 28.5 -70.5t70.5 -28.5z" />
    <glyph glyph-name="ogonek" unicode="&#x2db;" horiz-adv-x="657" 
d="M180 -354q-88 0 -140 46.5t-52 127.5q0 75 40 135.5t103 85.5l127 -41q-67 0 -110.5 -44.5t-43.5 -113.5q0 -35 24 -55t65 -20q67 0 110 43l53 -109q-78 -55 -176 -55z" />
    <glyph glyph-name="tilde" unicode="&#x2dc;" horiz-adv-x="778" 
d="M668 1178q-35 0 -65 14t-51 34t-39.5 39.5t-39.5 33.5t-43 14q-89 0 -141 -146l-92 27q81 238 235 238q35 0 65 -14t51 -34t39.5 -40t39.5 -34t43 -14q86 0 141 146l92 -27q-81 -237 -235 -237z" />
    <glyph glyph-name="hungarumlaut" unicode="&#x2dd;" horiz-adv-x="1081" 
d="M264 1180l309 295l158 -37l-344 -258h-123zM674 1180l309 290l158 -36l-344 -254h-123z" />
    <glyph glyph-name="uni0326" unicode="&#x326;" horiz-adv-x="0" 
d="M-514 -567l-61 55q87 81 131 164q-33 -4 -55.5 19t-22.5 59q0 39 30.5 70.5t71.5 31.5q43 0 66.5 -29t23.5 -77q0 -38 -11 -72t-41 -74t-54.5 -66.5t-77.5 -80.5z" />
    <glyph glyph-name="Wgrave" unicode="&#x1e80;" horiz-adv-x="2213" 
d="M1257 1528l-237 258l166 37l186 -295h-115zM446 0l-188 1407h178l150 -1139l612 1139h178l133 -1139l629 1139h182l-774 -1407h-157l-140 1198l-645 -1198h-158z" />
    <glyph glyph-name="wgrave" unicode="&#x1e81;" horiz-adv-x="1705" 
d="M915 1180l-237 258l166 37l186 -295h-115zM315 0l-133 1059h160l86 -854l467 854h133l111 -854l442 854h168l-578 -1059h-145l-102 846l-463 -846h-146z" />
    <glyph glyph-name="Wacute" unicode="&#x1e82;" horiz-adv-x="2213" 
d="M1255 1528l310 295l157 -37l-344 -258h-123zM446 0l-188 1407h178l150 -1139l612 1139h178l133 -1139l629 1139h182l-774 -1407h-157l-140 1198l-645 -1198h-158z" />
    <glyph glyph-name="wacute" unicode="&#x1e83;" horiz-adv-x="1705" 
d="M932 1180l309 295l158 -37l-344 -258h-123zM315 0l-133 1059h160l86 -854l467 854h133l111 -854l442 854h168l-578 -1059h-145l-102 846l-463 -846h-146z" />
    <glyph glyph-name="Wdieresis" unicode="&#x1e84;" horiz-adv-x="2213" 
d="M1137 1571q-39 0 -62.5 25t-23.5 61q0 39 30.5 70.5t71.5 31.5q38 0 62 -25t24 -61q0 -39 -31.5 -70.5t-70.5 -31.5zM1530 1571q-39 0 -62.5 25t-23.5 61q0 39 30.5 70.5t71.5 31.5q38 0 62 -25t24 -61q0 -39 -31.5 -70.5t-70.5 -31.5zM446 0l-188 1407h178l150 -1139
l612 1139h178l133 -1139l629 1139h182l-774 -1407h-157l-140 1198l-645 -1198h-158z" />
    <glyph glyph-name="wdieresis" unicode="&#x1e85;" horiz-adv-x="1705" 
d="M811 1223q-39 0 -62.5 25t-23.5 61q0 39 30.5 70.5t71.5 31.5q38 0 62 -25t24 -61q0 -39 -31.5 -70.5t-70.5 -31.5zM1204 1223q-39 0 -62.5 25t-23.5 61q0 39 31 70.5t72 31.5q38 0 62 -25t24 -61q0 -39 -32 -70.5t-71 -31.5zM315 0l-133 1059h160l86 -854l467 854h133
l111 -854l442 854h168l-578 -1059h-145l-102 846l-463 -846h-146z" />
    <glyph glyph-name="uni1EB8" unicode="&#x1eb8;" horiz-adv-x="1284" 
d="M1323 1255h-850l-92 -462h762l-31 -152h-766l-98 -489h846l-33 -152h-1010l293 1407h1010zM516 -164q38 0 62 -25t24 -61q0 -39 -31.5 -70.5t-70.5 -31.5t-62.5 25t-23.5 61q0 39 30.5 70.5t71.5 31.5z" />
    <glyph glyph-name="uni1EB9" unicode="&#x1eb9;" horiz-adv-x="1228" 
d="M614 471h-372q-2 -14 -2 -41q0 -145 81.5 -231t221.5 -86q96 0 197 38t161 93l82 -109q-81 -72 -217 -116t-250 -44q-188 0 -308 123t-120 320q0 129 55 252t144 213t208 145t242 55q101 0 186.5 -34.5t139 -102t53.5 -155.5q0 -142 -135 -231t-367 -89zM725 946
q-156 0 -277.5 -96.5t-175.5 -241.5h371q154 0 238 45.5t84 128.5q0 75 -67.5 119.5t-172.5 44.5zM444 -166q38 0 62 -25t24 -61q0 -39 -31.5 -70.5t-70.5 -31.5t-62.5 25t-23.5 61q0 39 30.5 70.5t71.5 31.5z" />
    <glyph glyph-name="uni1EBC" unicode="&#x1ebc;" horiz-adv-x="1284" 
d="M780 1661q-89 0 -141 -145l-92 26q81 238 235 238q35 0 65 -14t51 -34t39.5 -39.5t39.5 -33.5t43 -14q86 0 141 145l92 -27q-81 -237 -235 -237q-35 0 -65 14t-51 34t-39.5 39.5t-39.5 33.5t-43 14zM1323 1255h-850l-92 -462h762l-31 -152h-766l-98 -489h846l-33 -152
h-1010l293 1407h1010z" />
    <glyph glyph-name="uni1EBD" unicode="&#x1ebd;" horiz-adv-x="1163" 
d="M664 1313q-90 0 -142 -146l-92 27q81 238 236 238q35 0 65 -14t50.5 -34t39.5 -40t39.5 -34t42.5 -14q86 0 141 146l93 -27q-81 -237 -236 -237q-35 0 -65 14t-50.5 34t-39.5 39.5t-39.5 33.5t-42.5 14zM737 1083q101 0 186.5 -34.5t139 -102t53.5 -155.5
q0 -142 -135 -231t-367 -89h-372q-2 -14 -2 -41q0 -145 81.5 -231t221.5 -86q96 0 197 38t161 93l82 -109q-81 -72 -217 -116t-250 -44q-188 0 -308 123t-120 320q0 129 55 252t144 213t208 145t242 55zM643 608q154 0 238 45.5t84 128.5q0 75 -67.5 119.5t-172.5 44.5
q-156 0 -277.5 -96.5t-175.5 -241.5h371z" />
    <glyph glyph-name="Ygrave" unicode="&#x1ef2;" horiz-adv-x="1374" 
d="M903 1528l-237 258l165 37l187 -295h-115zM492 0l122 573l-395 834h162l330 -696l612 696h197l-738 -834l-123 -573h-167z" />
    <glyph glyph-name="ygrave" unicode="&#x1ef3;" horiz-adv-x="1214" 
d="M760 1180l-238 258l166 37l186 -295h-114zM135 -369q-94 0 -166 37l54 127q44 -24 112 -24q57 0 99 23t83 77l93 125l-238 1063h166l186 -881l535 881h170l-729 -1184q-81 -131 -169.5 -187.5t-195.5 -56.5z" />
    <glyph glyph-name="endash" unicode="&#x2013;" horiz-adv-x="1183" 
d="M106 483l29 146h952l-28 -146h-953z" />
    <glyph glyph-name="emdash" unicode="&#x2014;" horiz-adv-x="1808" 
d="M106 483l29 146h1577l-29 -146h-1577z" />
    <glyph glyph-name="quoteleft" unicode="&#x2018;" horiz-adv-x="540" 
d="M477 1382l72 -65q-94 -84 -154 -193q39 0 64.5 -25.5t25.5 -66.5q0 -55 -37.5 -89t-85.5 -34q-51 0 -78.5 34t-27.5 91q0 44 15.5 86.5t51 89.5t66.5 81t88 91z" />
    <glyph glyph-name="quoteright" unicode="&#x2019;" horiz-adv-x="540" 
d="M322 909l-72 66q93 83 153 192q-39 0 -64.5 26t-25.5 67q0 54 37 88t86 34q51 0 79 -34t28 -91q0 -44 -15.5 -86.5t-51 -89.5t-66.5 -81t-88 -91z" />
    <glyph glyph-name="quotedblleft" unicode="&#x201c;" horiz-adv-x="950" 
d="M477 1382l72 -65q-94 -84 -154 -193q39 0 64.5 -25.5t25.5 -66.5q0 -55 -37.5 -89t-85.5 -34q-51 0 -78.5 34t-27.5 91q0 44 15.5 86.5t51 89.5t66.5 81t88 91zM885 1382l71 -65q-92 -82 -153 -193q39 0 64.5 -25.5t25.5 -66.5q0 -55 -37.5 -89t-85.5 -34q-51 0 -78.5 34
t-27.5 91q0 44 15.5 86.5t51 89.5t66.5 81t88 91z" />
    <glyph glyph-name="quotedblright" unicode="&#x201d;" horiz-adv-x="950" 
d="M322 909l-72 66q93 83 153 192q-39 0 -64.5 26t-25.5 67q0 54 37 88t86 34q51 0 79 -34t28 -91q0 -44 -15.5 -86.5t-51 -89.5t-66.5 -81t-88 -91zM731 909l-72 66q95 85 154 192q-39 0 -64.5 26t-25.5 67q0 54 37 88t86 34q51 0 78.5 -34t27.5 -91q0 -44 -15.5 -86.5
t-51 -89.5t-66.5 -81t-88 -91z" />
    <glyph glyph-name="ellipsis" unicode="&#x2026;" horiz-adv-x="1339" 
d="M156 -25q-44 0 -71.5 28.5t-27.5 70.5q0 53 37.5 88t85.5 35q42 0 69 -28t27 -69q0 -49 -36.5 -87t-83.5 -38zM565 -25q-43 0 -70.5 28.5t-27.5 70.5q0 53 37.5 88t85.5 35q42 0 69 -28t27 -69q0 -49 -37 -87t-84 -38zM975 -25q-43 0 -70.5 28.5t-27.5 70.5q0 53 37 88
t85 35q42 0 69.5 -28.5t27.5 -68.5q0 -49 -37 -87t-84 -38z" />
    <glyph glyph-name="perthousand" unicode="&#x2030;" horiz-adv-x="2406" 
d="M471 715q-126 0 -198 77t-72 199q0 110 53 209t144.5 159t197.5 60q126 0 198 -77.5t72 -200.5q0 -170 -117 -298t-278 -128zM154 0l1255 1407h139l-1253 -1407h-141zM473 825q71 0 133 46.5t97.5 118.5t35.5 149q0 76 -39 123t-106 47q-109 0 -188.5 -100.5
t-79.5 -213.5q0 -76 40 -123t107 -47zM1100 -20q-124 0 -198.5 77t-74.5 201q0 108 53 206t146 159t199 61q126 0 198 -78t72 -200q0 -109 -53 -207.5t-144.5 -158.5t-197.5 -60zM1878 -20q-124 0 -198 77t-74 201q0 108 53 206t145.5 159t198.5 61q126 0 198 -78t72 -200
q0 -109 -53 -207.5t-144.5 -158.5t-197.5 -60zM1102 90q74 0 137.5 49.5t97 122t33.5 146.5t-40 119.5t-107 45.5q-108 0 -187.5 -97.5t-79.5 -217.5q0 -76 39 -122t107 -46zM1880 90q74 0 137.5 49.5t97 122t33.5 146.5t-40 119.5t-107 45.5q-108 0 -187 -97.5t-79 -217.5
q0 -76 38.5 -122t106.5 -46z" />
    <glyph glyph-name="Euro" unicode="&#x20ac;" horiz-adv-x="1398" 
d="M1024 1432q123 0 249.5 -61.5t203.5 -158.5l-125 -102q-57 77 -157.5 125.5t-201.5 48.5q-177 0 -331.5 -87t-249.5 -234h645l-29 -138h-688q-39 -104 -45 -204h690l-27 -138h-655q33 -154 159.5 -257t287.5 -103q96 0 215.5 51t210.5 131l92 -119
q-113 -92 -266.5 -151.5t-280.5 -59.5q-215 0 -381.5 146.5t-200.5 361.5h-196l26 138h166q6 110 39 204h-162l29 138h192q114 211 327.5 340t463.5 129z" />
    <glyph glyph-name="minus" unicode="&#x2212;" horiz-adv-x="1216" 
d="M154 608l32 152h940l-32 -152h-940z" />
    <glyph glyph-name="a.alt" horiz-adv-x="1171" 
d="M688 1083q179 0 270 -86.5t91 -236.5q0 -20 -1 -35t-5.5 -43.5t-9.5 -55.5t-17.5 -88t-26 -123t-37.5 -178.5t-49 -236.5h-153l32 156q-72 -87 -182.5 -134t-216.5 -47q-150 0 -241 74t-91 199q0 121 69.5 218t179.5 148.5t235 51.5q166 0 342 -64q20 104 20 146
q0 204 -223 204q-126 0 -334 -98l-47 129q221 100 395 100zM817 338l2 -8q24 116 35 166q-137 41 -301 41q-89 0 -169.5 -35t-131.5 -98t-51 -138q0 -74 59 -114.5t156 -40.5q118 0 234.5 60.5t166.5 166.5z" />
    <glyph glyph-name="aacute.alt" horiz-adv-x="1171" 
d="M1008 1438l-344 -258h-123l309 295zM688 1083q179 0 270 -86.5t91 -236.5q0 -20 -1 -35t-5.5 -43.5t-9.5 -55.5t-17.5 -88t-26 -123t-37.5 -178.5t-49 -236.5h-153l32 156q-72 -87 -182.5 -134t-216.5 -47q-150 0 -241 74t-91 199q0 121 69.5 218t179.5 148.5t235 51.5
q166 0 342 -64q20 104 20 146q0 204 -223 204q-126 0 -334 -98l-47 129q221 100 395 100zM817 338l2 -8q24 116 35 166q-137 41 -301 41q-89 0 -169.5 -35t-131.5 -98t-51 -138q0 -74 59 -114.5t156 -40.5q118 0 234.5 60.5t166.5 166.5z" />
    <glyph glyph-name="abreve.alt" horiz-adv-x="1171" 
d="M750 1206q-173 0 -281 127l109 88q32 -39 79.5 -60.5t98.5 -21.5q114 0 227 91l84 -105q-142 -119 -317 -119zM688 1083q179 0 270 -86.5t91 -236.5q0 -20 -1 -35t-5.5 -43.5t-9.5 -55.5t-17.5 -88t-26 -123t-37.5 -178.5t-49 -236.5h-153l32 156q-72 -87 -182.5 -134
t-216.5 -47q-150 0 -241 74t-91 199q0 121 69.5 218t179.5 148.5t235 51.5q166 0 342 -64q20 104 20 146q0 204 -223 204q-126 0 -334 -98l-47 129q221 100 395 100zM817 338l2 -8q24 116 35 166q-137 41 -301 41q-89 0 -169.5 -35t-131.5 -98t-51 -138q0 -74 59 -114.5
t156 -40.5q118 0 234.5 60.5t166.5 166.5z" />
    <glyph glyph-name="acircumflex.alt" horiz-adv-x="1171" 
d="M774 1356l-199 -176h-120l264 280h143l150 -280h-115zM688 1083q179 0 270 -86.5t91 -236.5q0 -20 -1 -35t-5.5 -43.5t-9.5 -55.5t-17.5 -88t-26 -123t-37.5 -178.5t-49 -236.5h-153l32 156q-72 -87 -182.5 -134t-216.5 -47q-150 0 -241 74t-91 199q0 121 69.5 218
t179.5 148.5t235 51.5q166 0 342 -64q20 104 20 146q0 204 -223 204q-126 0 -334 -98l-47 129q221 100 395 100zM817 338l2 -8q24 116 35 166q-137 41 -301 41q-89 0 -169.5 -35t-131.5 -98t-51 -138q0 -74 59 -114.5t156 -40.5q118 0 234.5 60.5t166.5 166.5z" />
    <glyph glyph-name="adieresis.alt" horiz-adv-x="1171" 
d="M557 1223q-39 0 -62.5 25t-23.5 61q0 39 30.5 70.5t71.5 31.5q38 0 62 -25t24 -61q0 -39 -31.5 -70.5t-70.5 -31.5zM950 1223q-39 0 -62.5 25t-23.5 61q0 39 31 70.5t72 31.5q38 0 62 -25t24 -61q0 -39 -32 -70.5t-71 -31.5zM688 1083q179 0 270 -86.5t91 -236.5
q0 -20 -1 -35t-5.5 -43.5t-9.5 -55.5t-17.5 -88t-26 -123t-37.5 -178.5t-49 -236.5h-153l32 156q-72 -87 -182.5 -134t-216.5 -47q-150 0 -241 74t-91 199q0 121 69.5 218t179.5 148.5t235 51.5q166 0 342 -64q20 104 20 146q0 204 -223 204q-126 0 -334 -98l-47 129
q221 100 395 100zM817 338l2 -8q24 116 35 166q-137 41 -301 41q-89 0 -169.5 -35t-131.5 -98t-51 -138q0 -74 59 -114.5t156 -40.5q118 0 234.5 60.5t166.5 166.5z" />
    <glyph glyph-name="agrave.alt" horiz-adv-x="1171" 
d="M874 1180h-114l-238 258l166 37zM688 1083q179 0 270 -86.5t91 -236.5q0 -20 -1 -35t-5.5 -43.5t-9.5 -55.5t-17.5 -88t-26 -123t-37.5 -178.5t-49 -236.5h-153l32 156q-72 -87 -182.5 -134t-216.5 -47q-150 0 -241 74t-91 199q0 121 69.5 218t179.5 148.5t235 51.5
q166 0 342 -64q20 104 20 146q0 204 -223 204q-126 0 -334 -98l-47 129q221 100 395 100zM817 338l2 -8q24 116 35 166q-137 41 -301 41q-89 0 -169.5 -35t-131.5 -98t-51 -138q0 -74 59 -114.5t156 -40.5q118 0 234.5 60.5t166.5 166.5z" />
    <glyph glyph-name="amacron.alt" horiz-adv-x="1171" 
d="M446 1329h635l-22 -112h-635zM688 1083q179 0 270 -86.5t91 -236.5q0 -20 -1 -35t-5.5 -43.5t-9.5 -55.5t-17.5 -88t-26 -123t-37.5 -178.5t-49 -236.5h-153l32 156q-72 -87 -182.5 -134t-216.5 -47q-150 0 -241 74t-91 199q0 121 69.5 218t179.5 148.5t235 51.5
q166 0 342 -64q20 104 20 146q0 204 -223 204q-126 0 -334 -98l-47 129q221 100 395 100zM817 338l2 -8q24 116 35 166q-137 41 -301 41q-89 0 -169.5 -35t-131.5 -98t-51 -138q0 -74 59 -114.5t156 -40.5q118 0 234.5 60.5t166.5 166.5z" />
    <glyph glyph-name="aogonek.alt" horiz-adv-x="1171" 
d="M844 -233q67 0 110 43l54 -109q-78 -55 -177 -55q-88 0 -140 46.5t-52 127.5q0 66 32.5 121.5t84.5 87.5q4 20 8.5 42t9.5 47t8 38q-72 -87 -182.5 -134t-216.5 -47q-150 0 -241 74t-91 199q0 121 69.5 218t179.5 148.5t235 51.5q166 0 342 -64q20 104 20 146
q0 204 -223 204q-126 0 -334 -98l-47 129q221 100 395 100q179 0 270 -86.5t91 -236.5q0 -20 -1 -35t-5.5 -43.5t-9.5 -55.5t-17.5 -88t-26 -122.5t-37.5 -177.5t-49 -236l6 -2q-67 0 -110 -44.5t-43 -113.5q0 -35 23.5 -55t64.5 -20zM817 338l2 -8q24 116 35 166
q-137 41 -301 41q-89 0 -169.5 -35t-131.5 -98t-51 -138q0 -74 59 -114.5t156 -40.5q118 0 234.5 60.5t166.5 166.5z" />
    <glyph glyph-name="aring.alt" horiz-adv-x="1171" 
d="M739 1206q-76 0 -124 48.5t-48 121.5q0 100 80 176t180 76q75 0 122.5 -47t47.5 -119q0 -102 -79.5 -179t-178.5 -77zM809 1538q-56 0 -103 -43.5t-47 -99.5q0 -42 28.5 -70.5t70.5 -28.5q56 0 101.5 44.5t45.5 101.5q0 42 -27 69t-69 27zM688 1083q179 0 270 -86.5
t91 -236.5q0 -20 -1 -35t-5.5 -43.5t-9.5 -55.5t-17.5 -88t-26 -123t-37.5 -178.5t-49 -236.5h-153l32 156q-72 -87 -182.5 -134t-216.5 -47q-150 0 -241 74t-91 199q0 121 69.5 218t179.5 148.5t235 51.5q166 0 342 -64q20 104 20 146q0 204 -223 204q-126 0 -334 -98
l-47 129q221 100 395 100zM817 338l2 -8q24 116 35 166q-137 41 -301 41q-89 0 -169.5 -35t-131.5 -98t-51 -138q0 -74 59 -114.5t156 -40.5q118 0 234.5 60.5t166.5 166.5z" />
    <glyph glyph-name="atilde.alt" horiz-adv-x="1171" 
d="M639 1313q-89 0 -141 -146l-92 27q81 238 235 238q35 0 65 -14t51 -34t39.5 -40t39.5 -34t43 -14q86 0 141 146l92 -27q-81 -237 -235 -237q-35 0 -65 14t-51 34t-39.5 39.5t-39.5 33.5t-43 14zM688 1083q179 0 270 -86.5t91 -236.5q0 -20 -1 -35t-5.5 -43.5t-9.5 -55.5
t-17.5 -88t-26 -123t-37.5 -178.5t-49 -236.5h-153l32 156q-72 -87 -182.5 -134t-216.5 -47q-150 0 -241 74t-91 199q0 121 69.5 218t179.5 148.5t235 51.5q166 0 342 -64q20 104 20 146q0 204 -223 204q-126 0 -334 -98l-47 129q221 100 395 100zM817 338l2 -8
q24 116 35 166q-137 41 -301 41q-89 0 -169.5 -35t-131.5 -98t-51 -138q0 -74 59 -114.5t156 -40.5q118 0 234.5 60.5t166.5 166.5z" />
    <glyph glyph-name="ascender" horiz-adv-x="1312" 
d="M61 0l297 1432h154l-297 -1432h-154z" />
    <glyph glyph-name="descender" horiz-adv-x="1312" 
d="M-12 -352l293 1411h153l-293 -1411h-153z" />
    </font>
</defs>
</svg>
